<?xml version="1.0" standalone="no"?>
<!DOCTYPE svg PUBLIC "-//W3C//DTD SVG 1.1//EN" "http://www.w3.org/Graphics/SVG/1.1/DTD/svg11.dtd" >
<svg xmlns="http://www.w3.org/2000/svg">
<metadata>Generated by IcoMoon</metadata>
<defs>
<font id="hudongpai" horiz-adv-x="512">
<font-face units-per-em="512" ascent="480" descent="-32" />
<missing-glyph horiz-adv-x="512" />
<glyph unicode="&#x20;" d="" horiz-adv-x="256" />
<glyph unicode="&#xe600;" d="M256 343.6c-25.050 0-50.85-5.25-65-8.55l2.1 35.1c13.25 8.75 35.45 9.75 88.9 9.75h156.6c-46.35 39.85-111 64.7-182.6 64.7-140.8 0-255-95.9-255-214.2 0-79.55 51.75-148.9 128.4-185.85 45 82.25 113.9 245.65 126.6 299.050zM511 230.4c0 41.6-14.2 80.4-38.55 113.2h-28.2l-26.9-128.25c-5.2-23.75-7.15-40.85-7.15-53.35 0-6.2 0.5-10.4 1.95-14.1h-48.7c-1.95 2.85-3.35 8.3-3.35 17.050 0 11.2 2.4 28.35 6.65 49.1l26.95 129.55h-88c-4.25-14.15-8.050-29.15-12.3-44.95-14.9-52.1-78-210.8-111.9-273.15 23.55-6.050 48.6-9.3 74.5-9.3 63.4 0 121.3 19.5 165.85 51.6l89.15-31.2-42 76.15c26.55 33.75 42 74.2 42 117.65z" />
<glyph unicode="&#xe601;" d="M91 270.7c-8.75 0-17.8-1.85-22.75-3l0.75 12.3c4.65 3.050 12.4 3.4 31.1 3.4h54.8c-16.2 13.95-38.85 22.65-63.9 22.65-49.3 0-89.25-33.55-89.25-74.95 0-27.85 18.1-52.1 44.95-65.050 15.75 28.8 39.85 85.95 44.3 104.65zM180.25 231.050c0 14.55-4.95 28.15-13.5 39.6h-9.85l-9.4-44.9c-1.8-8.3-2.5-14.3-2.5-18.65 0-2.2 0.2-3.65 0.7-4.95h-17.050c-0.7 1-1.2 2.9-1.2 5.95 0 3.9 0.85 9.9 2.3 17.2l9.45 45.35h-30.8c-1.5-4.95-2.8-10.2-4.3-15.75-5.2-18.2-27.25-73.75-39.15-95.6 8.25-2.1 17-3.25 26.1-3.25 22.2 0 42.45 6.8 58.050 18.050l31.2-10.9-14.75 26.7c9.3 11.85 14.7 26 14.7 41.15zM387.7 170.8c0 1.2 0.9 2.1 2.1 2.1s2.050-0.85 2.050-2.1c0-1.2-0.8-2.050-2.1-2.050-1.25-0.050-2.050 0.9-2.050 2.050zM389.8 168.6c-1.3 0-2.2 0.9-2.2 2.2 0 1.25 0.95 2.2 2.2 2.2 1.3 0 2.2-0.9 2.2-2.2s-0.9-2.2-2.2-2.2zM389.8 172.75c-1.15 0-2-0.85-2-2s0.8-1.95 1.95-1.95c1.2 0 2 0.8 2 1.95 0 1.2-0.8 2-1.95 2zM327.35 278.75h36.050v-8.25h-36.050v8.25zM395.050 270.9l3.050 10.8h-11.55l-3.050-10.8h-17v-8.25h14.65l-18.65-66.45h11.55l18.65 66.45h6.35v-53.1c0.25-3.65-1.45-5.45-5.1-5.45h-5.7v-7.85h9.25c9.15-0.25 13.6 4.45 13.35 14.1v60.55h-15.8zM345.15 245.8h21v9.2h-43.9v-9.2h11.7l-14.1-43.5h32.2v5.1h10.25l-7.75 24.1h-10.55l6.1-19.050h-15.75zM420.4 196.25h11.75c3.9 10.7 6.55 23.9 7.85 39.55h-10.2c-1.050-14.6-4.2-27.8-9.4-39.55zM475.25 254.45h16.050c6 0 12.4 1.35 17.6 3.45v8.4c-5.45-2.3-13.95-3.9-19.95-3.6h-24.7v-67.2c9.15 2.6 16.7 5.9 22.75 9.8v8.6c-4.2-2.35-8.1-4.050-11.75-5.1v45.65zM510.15 249.35h-9.050c-1.050-6.8-3.65-11.9-7.85-15.3 0 0.5-0.15 1.45-0.4 2.75-1.050 5.2-1.7 9.4-1.95 12.55h-10.55c1.55-24.6 11.5-42.35 29.8-53.3v8.6c-7.3 7.050-12.3 14.5-14.9 22.35 8.35 3.15 13.35 10.55 14.9 22.35zM429.25 278h10.75v-14.15h-10.75v14.15zM429.25 258h10.75v-14.8h-10.75v14.8zM487.1 270.5c6.5 0 13.8 0.8 21.9 2.35v9.050c-8.1-2.1-16.050-3.15-23.85-3.15h-39.7v-82.5h12.4v74.25h29.25zM289.35 204.2l2.95 49.35h-0.050c-0.1 1.8-1.5 3.2-3.4 3.2h-46.2l1.35 13.6h57.65v8.65h-83.9v-8.65h13.75l-6.050-52.8h52.15l-0.8-13.35h-62v-7.85h89.8v7.85h-15.25zM277.95 226.15h-38.8l2.35 21.95h38l-1.55-21.95zM426.1 169.5l2.85-0.4c-0.3-1.95-1.1-3.5-2.4-4.6s-2.85-1.65-4.7-1.65c-2.35 0-4.2 0.75-5.65 2.3-1.4 1.55-2.15 3.7-2.15 6.6 0 1.85 0.3 3.45 0.9 4.85s1.55 2.4 2.8 3.1c1.25 0.7 2.6 1.050 4.1 1.050 1.85 0 3.4-0.45 4.55-1.4 1.2-0.95 1.95-2.25 2.25-4l-2.8-0.45c-0.25 1.15-0.75 2-1.4 2.6-0.7 0.6-1.5 0.85-2.45 0.85-1.45 0-2.65-0.5-3.55-1.55s-1.35-2.7-1.35-4.95c0-2.3 0.45-3.95 1.3-5 0.9-1.050 2.050-1.55 3.45-1.55 1.15 0 2.1 0.35 2.85 1.050 0.75 0.65 1.2 1.7 1.4 3.15zM421.85 162.8c-2.35 0-4.25 0.8-5.7 2.3-1.45 1.55-2.15 3.75-2.15 6.6 0 1.85 0.3 3.5 0.9 4.85 0.6 1.4 1.55 2.45 2.85 3.15 1.25 0.7 2.65 1.050 4.1 1.050 1.85 0 3.4-0.5 4.6-1.4 1.2-0.95 1.95-2.3 2.3-4.050v-0.050l-2.95-0.45v0.050c-0.25 1.15-0.75 2-1.4 2.55s-1.5 0.85-2.45 0.85c-1.45 0-2.6-0.5-3.5-1.55s-1.35-2.7-1.35-4.95c0-2.25 0.45-3.95 1.3-4.95s2-1.55 3.4-1.55c1.1 0 2.050 0.35 2.8 1.050s1.2 1.75 1.45 3.2v0.050h0.050l2.9-0.4v-0.050c-0.3-1.95-1.15-3.55-2.4-4.65s-2.85-1.65-4.75-1.65zM421.85 180.65c-1.45 0-2.8-0.35-4.050-1.050s-2.15-1.7-2.8-3.1c-0.6-1.35-0.9-3-0.9-4.8 0-2.85 0.7-5.050 2.1-6.55s3.3-2.3 5.6-2.3c1.85 0 3.4 0.55 4.7 1.65 1.25 1.1 2.050 2.6 2.35 4.5l-2.75 0.35c-0.2-1.45-0.7-2.5-1.45-3.2s-1.75-1.050-2.9-1.050c-1.45 0-2.6 0.55-3.5 1.6s-1.35 2.75-1.35 5.050c0 2.25 0.45 3.95 1.4 5 0.9 1.050 2.15 1.6 3.6 1.6 0.95 0 1.8-0.3 2.5-0.9s1.15-1.45 1.45-2.55l2.7 0.4c-0.35 1.7-1.1 3-2.25 3.9-1.050 1-2.6 1.45-4.45 1.45zM448.85 171.8c0 3.15 0.9 5.5 2.65 7.050 1.45 1.25 3.25 1.9 5.4 1.9 2.35 0 4.25-0.75 5.75-2.3s2.25-3.65 2.25-6.4c0-2.2-0.35-3.95-1-5.2s-1.6-2.25-2.9-2.95c-1.25-0.7-2.65-1.050-4.15-1.050-2.4 0-4.35 0.75-5.8 2.3s-2.2 3.75-2.2 6.65zM451.8 171.8c0-2.2 0.5-3.85 1.45-4.9 0.95-1.1 2.15-1.65 3.6-1.65s2.65 0.55 3.6 1.65c0.95 1.1 1.45 2.75 1.45 5 0 2.1-0.5 3.7-1.45 4.8s-2.15 1.65-3.6 1.65c-1.45 0-2.65-0.55-3.6-1.6-0.95-1.15-1.45-2.75-1.45-4.95zM456.85 162.8c-2.4 0-4.35 0.8-5.85 2.3-1.5 1.55-2.25 3.8-2.25 6.65 0 3.15 0.9 5.55 2.65 7.1 1.45 1.25 3.3 1.9 5.4 1.9 2.35 0 4.3-0.8 5.8-2.35s2.25-3.7 2.25-6.4c0-2.2-0.35-3.95-1-5.2s-1.65-2.25-2.9-2.95c-1.2-0.7-2.6-1.050-4.1-1.050zM456.85 180.65c-2.1 0-3.9-0.65-5.35-1.9-1.75-1.5-2.6-3.85-2.6-7 0-2.85 0.75-5.050 2.2-6.6 1.45-1.5 3.4-2.3 5.75-2.3 1.45 0 2.85 0.35 4.1 1.050s2.2 1.65 2.85 2.9c0.65 1.25 1 3 1 5.15 0 2.7-0.75 4.8-2.2 6.35-1.5 1.6-3.4 2.35-5.75 2.35zM456.85 165.2c-1.45 0-2.7 0.55-3.65 1.65s-1.45 2.75-1.45 4.95c0 2.2 0.5 3.85 1.45 4.95s2.2 1.65 3.65 1.65c1.45 0 2.65-0.55 3.6-1.65s1.45-2.75 1.45-4.85c0-2.25-0.5-3.95-1.45-5.050-0.9-1.1-2.15-1.65-3.6-1.65zM456.85 178.25c-1.4 0-2.6-0.55-3.55-1.6s-1.4-2.7-1.4-4.85c0-2.15 0.45-3.8 1.4-4.9 0.95-1.050 2.15-1.6 3.55-1.6s2.6 0.55 3.55 1.6c0.95 1.1 1.4 2.75 1.4 4.95 0 2.1-0.5 3.7-1.45 4.75-0.9 1.15-2.1 1.65-3.5 1.65zM493.15 178c-0.75 0-1.4-0.2-1.95-0.5-0.55-0.35-0.95-0.8-1.2-1.4-0.2-0.6-0.35-1.45-0.35-2.65v-10.4h-2.9v10.5c0 1.35 0.050 2.3 0.15 2.8 0.15 0.85 0.45 1.55 0.9 2.15s1.1 1.1 1.95 1.45c0.85 0.35 1.8 0.5 2.85 0.55 0.3 0 0.55 0 0.8 0s0.4 0 0.65 0c1.050-0.050 2-0.2 2.85-0.55s1.5-0.85 1.95-1.45c0.45-0.6 0.75-1.3 0.9-2.15 0.1-0.55 0.15-1.45 0.15-2.8v-10.5h-2.9v10.4c0 1.2-0.1 2.050-0.35 2.65s-0.6 1.050-1.2 1.4c-0.55 0.35-1.2 0.5-1.95 0.5-0.1 0-0.25 0-0.35 0zM489.7 163h-3v10.6c0 1.35 0.050 2.3 0.15 2.85 0.15 0.85 0.5 1.55 0.9 2.15 0.45 0.6 1.050 1.1 1.95 1.5 0.75 0.3 1.65 0.5 2.85 0.55 0.3 0 0.55 0 0.8 0 0.050 0 0.1 0 0.15 0 0.15 0 0.25 0 0.4 0h0.1c1.2-0.050 2.1-0.25 2.85-0.55 0.9-0.4 1.55-0.85 1.95-1.5 0.45-0.6 0.75-1.35 0.9-2.15 0.1-0.55 0.15-1.5 0.15-2.85v-10.6h-3v10.45c0 1.15-0.1 2.050-0.35 2.65-0.2 0.55-0.6 1.050-1.15 1.35-0.55 0.35-1.2 0.5-1.95 0.5h-0.2c-0.050 0-0.1 0-0.15 0-0.75 0-1.4-0.2-1.95-0.5-0.55-0.35-0.95-0.8-1.15-1.35-0.2-0.6-0.35-1.45-0.35-2.65v-10.45zM486.8 163.1h2.8v10.35c0 1.2 0.1 2.1 0.35 2.65 0.25 0.6 0.65 1.1 1.2 1.45 0.6 0.35 1.25 0.5 2 0.55 0.050 0 0.1 0 0.15 0h0.2c0.75 0 1.4-0.2 2-0.55s1-0.85 1.2-1.45c0.25-0.6 0.35-1.5 0.35-2.7v-10.35h2.8v10.45c0 1.35-0.050 2.25-0.15 2.8-0.15 0.8-0.45 1.55-0.9 2.1-0.4 0.6-1.050 1.050-1.9 1.45-0.75 0.3-1.65 0.5-2.85 0.55h-0.1c-0.2 0-0.35 0-0.55 0-0.1 0-0.15 0-0.2 0-0.2 0-0.35 0-0.55 0-1.2-0.050-2.1-0.25-2.85-0.55-0.85-0.4-1.5-0.85-1.9-1.45s-0.7-1.3-0.9-2.1c-0.1-0.55-0.15-1.45-0.15-2.8v-10.4zM503.4 178c-0.75 0-1.4-0.2-1.95-0.5-0.55-0.35-0.95-0.8-1.2-1.4-0.2-0.6-0.35-1.45-0.35-2.65v-10.4h-2.9v10.5c0 1.35 0.050 2.3 0.15 2.8 0.15 0.85 0.45 1.55 0.9 2.15s1.050 1.1 1.95 1.45c0.85 0.35 1.8 0.5 2.85 0.55 0.3 0 0.55 0 0.8 0s0.4 0 0.65 0c1.050-0.050 2-0.2 2.85-0.55s1.5-0.85 1.95-1.45c0.45-0.6 0.75-1.3 0.9-2.15 0.1-0.55 0.15-1.45 0.15-2.8v-10.5h-2.9v10.4c0 1.2-0.1 2.050-0.35 2.65s-0.65 1.050-1.2 1.4c-0.55 0.35-1.2 0.5-1.95 0.5-0.050 0-0.2 0-0.35 0zM499.95 163h-3v10.6c0 1.35 0.050 2.3 0.15 2.85 0.15 0.85 0.5 1.55 0.9 2.15 0.45 0.6 1.1 1.1 1.95 1.5 0.75 0.3 1.65 0.5 2.85 0.55 0.3 0 0.55 0 0.8 0 0.050 0 0.1 0 0.15 0 0.15 0 0.25 0 0.4 0h0.1c1.2-0.050 2.1-0.25 2.85-0.55 0.9-0.4 1.55-0.9 1.95-1.5 0.45-0.6 0.75-1.3 0.9-2.15 0.1-0.55 0.15-1.5 0.15-2.85v-10.6h-3v10.45c0 1.15-0.1 2.050-0.35 2.65-0.2 0.55-0.6 1.050-1.15 1.35-0.55 0.35-1.2 0.5-1.95 0.5h-0.2c-0.050 0-0.1 0-0.15 0-0.7 0-1.4-0.2-1.95-0.5-0.55-0.35-0.95-0.8-1.2-1.35-0.2-0.6-0.35-1.45-0.35-2.65v-10.45zM497.050 163.1h2.8v10.35c0 1.2 0.1 2.1 0.35 2.65 0.25 0.6 0.65 1.1 1.25 1.45 0.55 0.35 1.25 0.5 2 0.55 0.050 0 0.1 0 0.15 0h0.2c0.75 0 1.4-0.2 2-0.55s1-0.85 1.2-1.45c0.25-0.6 0.35-1.5 0.35-2.65v-10.35h2.8v10.45c0 1.35-0.050 2.25-0.15 2.8-0.2 0.85-0.5 1.55-0.9 2.1-0.4 0.6-1.050 1.050-1.9 1.45-0.75 0.3-1.65 0.5-2.85 0.55h-0.1c-0.2 0-0.35 0-0.55 0-0.25 0-0.5 0-0.8 0-1.2-0.050-2.050-0.25-2.85-0.55-0.85-0.4-1.5-0.85-1.9-1.45s-0.7-1.3-0.9-2.1c-0.1-0.55-0.15-1.45-0.15-2.8v-10.45zM254.8 180.35h2.9v-17.1h-2.9v17.1zM257.8 163.2h-3v17.2h3v-17.2zM254.9 163.3h2.8v17h-2.8v-17zM279.45 168.35l2.85 0.45c0.15-1.15 0.6-2.050 1.35-2.65s1.75-0.9 3.1-0.9c1.35 0 2.3 0.25 2.95 0.8s0.95 1.2 0.95 1.9c0 0.65-0.3 1.15-0.85 1.55-0.4 0.25-1.4 0.6-2.95 1-2.15 0.55-3.6 1-4.4 1.4s-1.45 0.95-1.85 1.6c-0.4 0.7-0.65 1.45-0.65 2.3 0 0.75 0.15 1.45 0.5 2.1s0.8 1.2 1.4 1.6c0.45 0.35 1.050 0.6 1.85 0.85s1.6 0.35 2.5 0.35c1.35 0 2.5-0.2 3.55-0.6 1-0.4 1.75-0.9 2.25-1.55s0.8-1.55 1-2.65l-2.85-0.4c-0.15 0.9-0.5 1.55-1.1 2.050s-1.5 0.75-2.6 0.75c-1.35 0-2.3-0.2-2.85-0.65s-0.85-0.95-0.85-1.55c0-0.4 0.1-0.7 0.35-1s0.6-0.55 1.1-0.75c0.3-0.1 1.15-0.35 2.55-0.75 2.050-0.55 3.5-1 4.3-1.35s1.45-0.85 1.9-1.5c0.45-0.65 0.7-1.5 0.7-2.5 0-0.95-0.3-1.9-0.85-2.75s-1.35-1.5-2.45-2c-1.050-0.45-2.25-0.7-3.6-0.7-2.25 0-3.9 0.45-5.1 1.4-1.15 0.95-1.9 2.35-2.2 4.15zM286.75 162.8c-2.25 0-3.95 0.45-5.1 1.4s-1.95 2.35-2.25 4.15v0.050h0.050l2.95 0.45v-0.050c0.15-1.15 0.6-2 1.3-2.6 0.75-0.6 1.75-0.9 3.050-0.9s2.3 0.25 2.9 0.8c0.65 0.55 0.95 1.15 0.95 1.85 0 0.65-0.25 1.15-0.85 1.5-0.4 0.25-1.4 0.6-2.95 0.95-2.15 0.55-3.6 1-4.45 1.4s-1.45 0.95-1.9 1.65c-0.4 0.7-0.65 1.5-0.65 2.35 0 0.75 0.2 1.5 0.55 2.15s0.8 1.2 1.45 1.65c0.45 0.35 1.1 0.65 1.85 0.85 0.75 0.25 1.6 0.35 2.5 0.35 1.35 0 2.55-0.2 3.55-0.6s1.8-0.95 2.3-1.6c0.5-0.65 0.8-1.55 1-2.65v-0.050h-0.050l-2.9-0.4v0.050c-0.15 0.85-0.5 1.55-1.1 2-0.6 0.5-1.45 0.75-2.6 0.75-1.3 0-2.25-0.2-2.8-0.65s-0.85-0.95-0.85-1.5c0-0.35 0.1-0.7 0.35-1s0.6-0.55 1.1-0.75c0.25-0.1 1.1-0.35 2.55-0.75 2.050-0.55 3.5-1 4.3-1.35s1.45-0.85 1.95-1.55c0.45-0.65 0.7-1.5 0.7-2.5s-0.3-1.9-0.85-2.75c-0.55-0.85-1.4-1.55-2.45-2s-2.25-0.7-3.6-0.7zM279.5 168.3c0.3-1.75 1.050-3.1 2.2-4s2.85-1.35 5.050-1.35c1.3 0 2.55 0.25 3.6 0.7s1.85 1.1 2.4 1.95c0.55 0.85 0.85 1.75 0.85 2.7s-0.25 1.8-0.7 2.45c-0.45 0.65-1.1 1.15-1.9 1.5s-2.25 0.8-4.3 1.35c-1.5 0.4-2.3 0.65-2.55 0.75-0.5 0.2-0.9 0.45-1.15 0.8-0.25 0.3-0.35 0.65-0.35 1.050 0 0.6 0.3 1.15 0.9 1.6 0.55 0.45 1.55 0.7 2.9 0.7 1.15 0 2.050-0.25 2.65-0.75s1-1.2 1.15-2.050l2.7 0.35c-0.2 1.050-0.5 1.95-1 2.55-0.45 0.65-1.2 1.15-2.2 1.55s-2.2 0.55-3.5 0.55c-0.9 0-1.7-0.1-2.5-0.35-0.75-0.2-1.35-0.5-1.85-0.85-0.6-0.45-1.050-0.95-1.4-1.6s-0.5-1.35-0.5-2.1c0-0.8 0.2-1.6 0.6-2.25 0.4-0.7 1.050-1.2 1.85-1.6s2.3-0.85 4.4-1.4c1.55-0.4 2.6-0.75 3-1 0.6-0.4 0.9-0.9 0.9-1.6 0-0.75-0.35-1.4-1-1.95s-1.65-0.85-3-0.85c-1.35 0-2.4 0.3-3.15 0.95-0.75 0.6-1.2 1.5-1.35 2.6l-2.75-0.4zM351.2 168.35l2.85 0.45c0.15-1.15 0.6-2.050 1.35-2.65s1.75-0.9 3.1-0.9c1.35 0 2.3 0.25 2.95 0.8s0.95 1.2 0.95 1.9c0 0.65-0.3 1.15-0.85 1.55-0.4 0.25-1.4 0.6-2.95 1-2.15 0.55-3.6 1-4.4 1.4s-1.45 0.95-1.85 1.6c-0.4 0.7-0.65 1.45-0.65 2.3 0 0.75 0.2 1.45 0.55 2.1s0.8 1.2 1.4 1.6c0.45 0.35 1.050 0.6 1.85 0.85s1.6 0.35 2.5 0.35c1.35 0 2.5-0.2 3.55-0.6 1-0.4 1.75-0.9 2.25-1.55s0.8-1.55 1-2.65l-2.85-0.4c-0.15 0.9-0.5 1.55-1.1 2.050s-1.5 0.75-2.6 0.75c-1.35 0-2.3-0.2-2.85-0.65s-0.85-0.95-0.85-1.55c0-0.4 0.1-0.7 0.35-1s0.6-0.55 1.1-0.75c0.3-0.1 1.15-0.35 2.55-0.75 2.050-0.55 3.5-1 4.3-1.35s1.45-0.85 1.9-1.5c0.45-0.65 0.7-1.5 0.7-2.5 0-0.95-0.3-1.9-0.85-2.75s-1.35-1.5-2.45-2c-1.050-0.45-2.25-0.7-3.6-0.7-2.2 0-3.9 0.45-5.1 1.4-1.15 0.95-1.9 2.35-2.25 4.15zM358.5 162.8c-2.25 0-3.95 0.45-5.1 1.4s-1.95 2.3-2.25 4.15v0.050h0.050l2.95 0.45v-0.050c0.15-1.15 0.6-2 1.3-2.6s1.75-0.9 3.050-0.9c1.3 0 2.3 0.25 2.95 0.8 0.6 0.55 0.95 1.15 0.95 1.85 0 0.65-0.25 1.15-0.8 1.5-0.4 0.25-1.35 0.6-2.95 0.95-2.15 0.55-3.6 1-4.45 1.4-0.8 0.4-1.45 0.95-1.9 1.65s-0.65 1.5-0.65 2.35c0 0.75 0.2 1.5 0.55 2.15s0.8 1.2 1.45 1.65c0.45 0.35 1.1 0.65 1.85 0.85 0.75 0.25 1.6 0.35 2.5 0.35 1.35 0 2.55-0.2 3.55-0.6s1.8-0.95 2.25-1.6c0.5-0.65 0.8-1.55 1-2.65v-0.050h-0.050l-2.9-0.4v0.050c-0.1 0.85-0.5 1.55-1.1 2-0.6 0.5-1.45 0.75-2.6 0.75-1.3 0-2.25-0.2-2.8-0.65s-0.85-0.95-0.85-1.5c0-0.35 0.1-0.7 0.35-1s0.6-0.55 1.1-0.75c0.25-0.1 1.1-0.35 2.55-0.75 2.050-0.55 3.5-1 4.3-1.35s1.45-0.85 1.95-1.55c0.45-0.65 0.7-1.5 0.7-2.5s-0.3-1.9-0.85-2.75c-0.55-0.85-1.4-1.55-2.45-2s-2.3-0.7-3.65-0.7zM351.3 168.3c0.3-1.75 1.050-3.1 2.2-4s2.85-1.35 5.050-1.35c1.3 0 2.55 0.25 3.6 0.7s1.85 1.1 2.4 1.95c0.55 0.85 0.85 1.75 0.85 2.7s-0.25 1.8-0.7 2.45c-0.45 0.65-1.1 1.15-1.9 1.5s-2.25 0.8-4.3 1.35c-1.5 0.4-2.3 0.65-2.55 0.75-0.5 0.2-0.9 0.5-1.15 0.8s-0.35 0.65-0.35 1.050c0 0.6 0.3 1.15 0.9 1.6s1.55 0.7 2.9 0.7c1.15 0 2.050-0.25 2.65-0.75s1-1.2 1.15-2.050l2.7 0.35c-0.2 1.050-0.5 1.95-1 2.55-0.45 0.65-1.2 1.15-2.2 1.55s-2.2 0.55-3.5 0.55c-0.9 0-1.7-0.1-2.5-0.35-0.75-0.2-1.35-0.5-1.85-0.85-0.6-0.45-1.050-0.95-1.4-1.6s-0.5-1.35-0.5-2.1c0-0.8 0.2-1.6 0.65-2.25 0.4-0.7 1.050-1.2 1.85-1.6s2.3-0.85 4.4-1.4c1.6-0.4 2.6-0.75 3-1 0.6-0.4 0.9-0.9 0.9-1.6 0-0.75-0.35-1.4-1-1.95s-1.65-0.85-3-0.85c-1.3 0-2.4 0.3-3.1 0.95-0.75 0.6-1.2 1.5-1.35 2.6l-2.85-0.4zM322.35 178.25c-0.75 0-1.4-0.2-1.95-0.5-0.55-0.35-0.95-0.8-1.2-1.4-0.2-0.6-0.35-1.45-0.35-2.65v-10.4h-2.9v10.5c0 1.35 0.050 2.3 0.15 2.8 0.15 0.8 0.45 1.55 0.9 2.15s1.1 1.1 1.95 1.45c0.85 0.35 1.8 0.5 2.85 0.55 0.3 0 0.55 0 0.8 0s0.4 0 0.65 0c1.050-0.050 2-0.2 2.85-0.55 0.85-0.4 1.5-0.85 1.95-1.45s0.75-1.3 0.9-2.15c0.1-0.55 0.15-1.45 0.15-2.8v-10.5h-2.9v10.4c0 1.2-0.1 2.050-0.35 2.65s-0.65 1.050-1.2 1.4c-0.55 0.35-1.2 0.5-1.95 0.5-0.050 0-0.25 0-0.35 0zM318.9 163.2h-3v10.6c0 1.35 0.050 2.3 0.15 2.8 0.15 0.85 0.5 1.55 0.9 2.15 0.45 0.6 1.050 1.1 1.95 1.5 0.95 0.4 2.050 0.5 2.85 0.55h0.1c0.25 0 0.5 0 0.7 0s0.4 0 0.65 0v0c1.2-0.050 2.1-0.25 2.85-0.55 0.9-0.4 1.55-0.85 1.95-1.5 0.45-0.6 0.75-1.35 0.9-2.15 0.1-0.55 0.15-1.5 0.15-2.8v-10.55h-3v10.45c0 1.15-0.1 2.050-0.35 2.65-0.2 0.55-0.6 1.050-1.15 1.35-0.55 0.35-1.2 0.5-1.95 0.5h-0.050c-0.1 0-0.2 0-0.3 0-0.75 0-1.4-0.2-1.95-0.5-0.55-0.35-0.95-0.8-1.15-1.35-0.2-0.6-0.35-1.45-0.35-2.65v-10.5zM316 163.35h2.8v10.35c0 1.2 0.1 2.1 0.35 2.65 0.25 0.6 0.65 1.050 1.2 1.45 0.55 0.35 1.25 0.5 2 0.55 0.1 0 0.2 0 0.3 0h0.050c0.75 0 1.4-0.2 2-0.55s1-0.85 1.2-1.45c0.25-0.6 0.35-1.5 0.35-2.7v-10.35h2.8v10.45c0 1.35-0.050 2.25-0.15 2.8-0.15 0.8-0.45 1.55-0.9 2.1-0.4 0.6-1.050 1.050-1.9 1.45-0.75 0.3-1.65 0.5-2.85 0.55v0c-0.25 0-0.45 0-0.65 0-0.25 0-0.45 0-0.7 0h-0.1c-0.8-0.050-1.9-0.15-2.85-0.55-0.85-0.4-1.5-0.85-1.9-1.45-0.45-0.6-0.75-1.3-0.9-2.1-0.1-0.55-0.15-1.45-0.15-2.8v-10.4zM254.4 185.15c0 1.1 0.8 1.9 1.9 1.9s1.85-0.8 1.85-1.9c0-1.1-0.75-1.85-1.9-1.85s-1.85 0.85-1.85 1.85zM256.25 183.25c-1.15 0-1.95 0.8-1.95 1.95 0 1.1 0.85 1.95 1.95 1.95 1.15 0 1.95-0.8 1.95-1.95 0-1.2-0.75-1.95-1.95-1.95zM256.3 187c-1.050 0-1.85-0.75-1.85-1.85 0-1.050 0.75-1.8 1.8-1.8 1.1 0 1.85 0.75 1.85 1.8s-0.75 1.85-1.8 1.85zM224.65 180.65h-4.15c-0.9 0-1.6-0.75-1.6-1.65v-22.45h2.7v6.7h3.15c5 0 7.75 3.55 7.75 8.8 0 5.3-2.75 8.6-7.85 8.6zM224.050 165.75h-2.4l-0.1 11.5c0 0.55 0.45 1.050 0.95 1.050h1.45c3.25 0 5.6-2.45 5.6-6.2 0-3.85-2.2-6.35-5.5-6.35zM221.65 156.55h-2.8v22.45c0 0.95 0.75 1.75 1.65 1.75h4.15c2.4 0 4.3-0.7 5.65-2.1 1.5-1.5 2.25-3.75 2.2-6.55 0-5.45-3-8.85-7.8-8.85h-3.1v-6.7zM218.95 156.65h2.6v6.7h3.2c4.75 0 7.65 3.35 7.65 8.7 0.050 2.75-0.7 5-2.2 6.5-1.35 1.35-3.25 2.050-5.6 2.050h-4.15c-0.85 0-1.55-0.75-1.55-1.6v-22.35zM224.050 165.7h-2.45v0.050l-0.1 11.5c0 0.6 0.45 1.1 1.050 1.1h1.45c3.35 0 5.65-2.5 5.65-6.25-0.050-3.85-2.25-6.4-5.6-6.4zM221.7 165.8h2.35c3.25 0 5.45 2.5 5.45 6.3 0 3.65-2.2 6.15-5.5 6.15h-1.45c-0.5 0-0.9-0.45-0.9-1l0.050-11.45z" />
<glyph unicode="&#xe602;" d="M299.6 146.6c0 2.1 1.55 3.6 3.6 3.6 2.1 0 3.6-1.5 3.6-3.6s-1.4-3.55-3.6-3.55c-2.25-0.050-3.6 1.55-3.6 3.55zM303.2 142.8c-2.2 0-3.75 1.55-3.75 3.75 0 2.15 1.65 3.8 3.8 3.8 2.2 0 3.75-1.6 3.75-3.8 0-2.25-1.5-3.75-3.8-3.75zM303.25 150c-2 0-3.4-1.45-3.4-3.4 0-2 1.4-3.35 3.35-3.35 2.050 0 3.4 1.35 3.4 3.35s-1.35 3.4-3.35 3.4zM195.1 333.45h62.45v-14.25h-62.45v14.25zM312.35 319.9l5.25 18.65h-20l-5.3-18.65h-29.35v-14.25h25.35l-32.3-115.050h20l32.35 115.050h10.95v-91.9c0.45-6.35-2.5-9.45-8.85-9.45h-9.9v-13.55h16c15.8-0.45 23.5 7.7 23.050 24.4v104.75h-27.25zM225.9 276.45h36.4v15.9h-76v-15.9h20.25l-24.4-75.35h55.75v8.85h17.7l-13.4 41.75h-18.3l10.6-32.95h-27.3zM356.2 190.65h20.3c6.8 18.5 11.3 41.4 13.6 68.5h-17.65c-1.8-25.3-7.25-48.15-16.25-68.5zM451.2 291.35h27.8c10.4 0 21.45 2.35 30.5 6v14.55c-9.45-4-24.15-6.7-34.55-6.25h-42.75v-116.35c15.85 4.55 28.95 10.2 39.35 16.95v14.95c-7.25-4.050-14-7-20.35-8.8v78.95zM511.6 282.55h-15.6c-1.85-11.75-6.35-20.6-13.55-26.45 0 0.9-0.25 2.45-0.7 4.75-1.85 9.050-2.95 16.3-3.4 21.7h-18.35c2.7-42.55 19.9-73.3 51.6-92.3v14.9c-12.7 12.2-21.3 25.1-25.8 38.65 14.45 5.5 23.050 18.4 25.8 38.75zM371.5 332.15h18.6v-24.5h-18.6v24.5zM371.5 297.55h18.6v-25.65h-18.6v25.65zM471.6 319.2c11.25 0 23.85 1.35 37.9 4.050v15.65c-14.050-3.65-27.8-5.45-41.3-5.45h-68.7v-142.75h21.5v128.5h50.6zM129.3 204.45l5.050 85.4h-0.1c-0.15 3.15-2.6 5.55-5.85 5.55h-79.9l2.35 23.5h99.75v14.95h-145.2v-14.95h23.75l-10.5-91.35h90.25l-1.35-23.050h-107.25v-13.6h155.4v13.6h-26.4zM109.6 242.45h-67.2l4.050 38h65.85l-2.7-38zM366.1 144.35l4.95-0.65c-0.55-3.4-1.9-6.050-4.15-8-2.2-1.9-4.95-2.9-8.2-2.9-4.050 0-7.3 1.35-9.75 4s-3.7 6.45-3.7 11.4c0 3.2 0.55 6 1.6 8.4s2.65 4.2 4.85 5.4c2.15 1.2 4.5 1.8 7.050 1.8 3.2 0 5.85-0.8 7.9-2.45s3.35-3.95 3.95-6.95l-4.9-0.75c-0.45 2-1.3 3.5-2.45 4.5-1.2 1-2.6 1.5-4.3 1.5-2.55 0-4.6-0.9-6.15-2.7-1.6-1.8-2.35-4.7-2.35-8.6 0-4 0.75-6.85 2.3-8.65 1.5-1.8 3.5-2.7 5.95-2.7 2 0 3.6 0.6 4.95 1.8 1.25 1.2 2.1 3.050 2.45 5.55zM358.7 132.75c-4.050 0-7.35 1.35-9.85 4-2.45 2.65-3.75 6.5-3.75 11.45 0 3.2 0.55 6 1.6 8.45 1.050 2.4 2.7 4.25 4.9 5.45 2.15 1.2 4.55 1.8 7.1 1.8 3.25 0 5.9-0.85 7.95-2.45 2.050-1.65 3.4-4 3.95-7v-0.1l-5.050-0.8v0.1c-0.45 1.95-1.3 3.45-2.45 4.45s-2.6 1.5-4.2 1.5c-2.5 0-4.55-0.9-6.1-2.7s-2.35-4.65-2.35-8.55c0-3.95 0.75-6.8 2.25-8.6 1.5-1.75 3.45-2.65 5.9-2.65 1.95 0 3.6 0.6 4.85 1.8 1.3 1.2 2.1 3.050 2.45 5.5v0.1h0.1l5.050-0.65v-0.1c-0.55-3.4-1.95-6.1-4.2-8.050-2.15-1.95-4.9-2.95-8.15-2.95zM358.75 163.7c-2.5 0-4.85-0.6-7-1.8s-3.75-3-4.8-5.35c-1.050-2.4-1.6-5.2-1.6-8.35 0-4.9 1.25-8.7 3.65-11.3s5.7-3.95 9.7-3.95c3.2 0 5.95 0.95 8.1 2.85s3.55 4.5 4.1 7.8l-4.75 0.6c-0.35-2.45-1.2-4.35-2.5-5.55-1.35-1.2-3-1.85-5-1.85-2.45 0-4.5 0.9-6.050 2.75-1.55 1.8-2.3 4.75-2.3 8.75 0 3.95 0.8 6.85 2.4 8.65s3.7 2.75 6.25 2.75c1.7 0 3.15-0.5 4.35-1.5 1.15-1 2-2.5 2.45-4.45l4.7 0.7c-0.6 2.9-1.9 5.2-3.9 6.75-2 1.65-4.65 2.5-7.8 2.5zM405.4 148.3c0 5.5 1.5 9.55 4.6 12.2 2.55 2.2 5.65 3.3 9.3 3.3 4.050 0 7.4-1.35 9.95-4 2.6-2.65 3.85-6.35 3.85-11.050 0-3.8-0.55-6.8-1.7-9s-2.8-3.9-5-5.1c-2.2-1.2-4.55-1.8-7.15-1.8-4.15 0-7.5 1.35-10.050 4-2.5 2.65-3.8 6.5-3.8 11.45zM410.6 148.3c0-3.8 0.85-6.65 2.45-8.5 1.65-1.9 3.75-2.85 6.25-2.85s4.55 0.95 6.2 2.85c1.65 1.9 2.5 4.8 2.5 8.65 0 3.65-0.85 6.45-2.5 8.3-1.65 1.9-3.75 2.85-6.2 2.85-2.5 0-4.6-0.95-6.25-2.8s-2.45-4.7-2.45-8.5zM419.3 132.75c-4.15 0-7.55 1.35-10.1 4s-3.85 6.55-3.85 11.55c0 5.5 1.55 9.6 4.6 12.25 2.55 2.2 5.7 3.3 9.4 3.3 4.050 0 7.45-1.35 10.050-4.050 2.6-2.65 3.9-6.4 3.9-11.1 0-3.8-0.6-6.85-1.7-9.050-1.15-2.2-2.85-3.9-5.050-5.15-2.25-1.15-4.65-1.75-7.25-1.75zM419.3 163.7c-3.6 0-6.75-1.1-9.25-3.25-3-2.6-4.55-6.7-4.55-12.1 0-4.95 1.3-8.8 3.8-11.4s5.9-3.95 10-3.95c2.55 0 4.95 0.6 7.1 1.8s3.8 2.9 4.95 5.050c1.15 2.15 1.7 5.15 1.7 8.95 0 4.65-1.3 8.35-3.85 11-2.55 2.55-5.9 3.9-9.9 3.9zM419.3 136.85c-2.55 0-4.65 0.95-6.3 2.85s-2.5 4.8-2.5 8.6c0 3.8 0.85 6.7 2.5 8.55 1.65 1.9 3.8 2.85 6.3 2.85s4.6-0.95 6.25-2.85c1.7-1.9 2.55-4.75 2.55-8.4 0-3.9-0.85-6.85-2.5-8.75-1.7-1.85-3.8-2.85-6.3-2.85zM419.3 159.55c-2.45 0-4.55-0.95-6.15-2.8-1.65-1.85-2.45-4.7-2.45-8.45s0.8-6.6 2.45-8.45c1.65-1.85 3.7-2.8 6.15-2.8s4.5 0.95 6.15 2.8c1.65 1.85 2.45 4.75 2.45 8.6 0 3.6-0.85 6.4-2.45 8.25-1.65 1.9-3.7 2.85-6.15 2.85zM482.1 159.1c-1.3 0-2.45-0.3-3.4-0.9-1-0.6-1.7-1.4-2.050-2.45-0.4-1-0.6-2.55-0.6-4.6v-18h-5v18.25c0 2.3 0.1 3.95 0.3 4.85 0.3 1.45 0.8 2.65 1.55 3.7s1.85 1.9 3.35 2.55c1.5 0.65 3.15 0.85 4.95 0.95 0.5 0 0.95 0.050 1.35 0 0.4 0 0.75 0 1.15 0 1.8-0.1 3.45-0.3 4.95-0.95s2.6-1.5 3.35-2.55c0.75-1.050 1.25-2.3 1.55-3.7 0.2-0.95 0.3-2.55 0.3-4.85v-18.2h-5v18c0 2.050-0.2 3.6-0.6 4.6s-1.1 1.8-2.050 2.45c-1 0.6-2.1 0.9-3.4 0.9-0.2-0.050-0.45-0.050-0.7-0.050zM476.15 133.050h-5.2v18.35c0 2.3 0.1 3.95 0.3 4.9 0.3 1.45 0.85 2.7 1.6 3.75s1.85 1.9 3.4 2.55c1.3 0.55 2.85 0.85 4.95 0.95 0.5 0 0.95 0.050 1.4 0 0.1 0 0.15 0 0.25 0 0.25 0 0.45 0 0.75 0h0.2c2.1-0.1 3.6-0.4 4.95-0.95 1.55-0.65 2.65-1.5 3.4-2.55s1.3-2.3 1.6-3.75c0.2-0.95 0.3-2.6 0.3-4.9v-18.3h-5.2v18.1c0 2-0.2 3.55-0.6 4.55s-1.050 1.8-2.050 2.4c-0.95 0.6-2.1 0.85-3.35 0.9h-0.35c-0.1 0-0.15 0-0.25 0-1.25 0-2.4-0.3-3.35-0.9s-1.65-1.4-2-2.4c-0.4-1-0.6-2.55-0.6-4.55v-18.15zM471.1 133.25h4.8v17.9c0 2.050 0.2 3.6 0.6 4.65s1.1 1.85 2.1 2.5c1 0.6 2.15 0.9 3.45 0.9 0.1 0 0.15 0 0.25 0h0.35c1.3 0 2.45-0.3 3.45-0.9s1.7-1.45 2.1-2.45c0.4-1.050 0.6-2.6 0.6-4.65v-17.9h4.8v18.1c0 2.3-0.1 3.95-0.25 4.85-0.3 1.4-0.8 2.65-1.55 3.65-0.75 1.050-1.8 1.85-3.3 2.5-1.3 0.55-2.85 0.85-4.9 0.95h-0.2c-0.35 0-0.6 0-0.95 0-0.15 0-0.25 0-0.4 0-0.3 0-0.65 0-1-0.050-2.1-0.1-3.6-0.4-4.9-0.95-1.5-0.65-2.6-1.45-3.3-2.5-0.75-1-1.25-2.25-1.55-3.65-0.15-0.9-0.25-2.55-0.25-4.85v-18.1zM499.9 159.1c-1.3 0-2.45-0.3-3.4-0.9-1-0.6-1.7-1.4-2.1-2.45-0.4-1-0.6-2.55-0.6-4.6v-18h-5v18.25c0 2.3 0.1 3.95 0.25 4.85 0.3 1.45 0.8 2.65 1.55 3.7s1.85 1.9 3.35 2.55c1.5 0.65 3.15 0.85 4.95 0.95 0.5 0 0.95 0.050 1.35 0 0.4 0 0.75 0 1.15 0 1.8-0.1 3.45-0.3 4.95-0.95s2.6-1.5 3.35-2.55c0.75-1.050 1.25-2.3 1.55-3.7 0.2-0.95 0.3-2.55 0.3-4.85v-18.2h-5v18c0 2.050-0.2 3.6-0.6 4.6s-1.1 1.8-2.050 2.45c-1 0.6-2.1 0.9-3.4 0.9-0.1-0.050-0.35-0.050-0.6-0.050zM493.9 133.050h-5.2v18.35c0 2.3 0.1 3.95 0.3 4.9 0.3 1.45 0.85 2.7 1.6 3.75s1.85 1.9 3.4 2.55c1.35 0.55 2.85 0.85 4.95 0.95 0.5 0 0.95 0.050 1.4 0 0.1 0 0.15 0 0.25 0 0.25 0 0.45 0 0.75 0h0.2c2.1-0.1 3.6-0.4 4.95-0.95 1.5-0.65 2.65-1.5 3.4-2.55 0.75-1 1.25-2.3 1.6-3.75 0.2-0.95 0.3-2.6 0.3-4.9v-18.3h-5.2v18.1c0 2-0.2 3.55-0.55 4.55-0.4 1-1.050 1.8-2.050 2.4-0.95 0.6-2.1 0.85-3.35 0.9h-0.35c-0.1 0-0.15 0-0.25 0-1.25 0-2.4-0.3-3.35-0.9-1-0.6-1.65-1.4-2.050-2.4s-0.6-2.55-0.6-4.55v-18.15zM488.9 133.25h4.8v17.9c0 2.050 0.2 3.6 0.6 4.65s1.1 1.85 2.15 2.5c1 0.6 2.15 0.9 3.45 0.9 0.1 0 0.15 0 0.25 0h0.35c1.3 0 2.45-0.3 3.45-0.9s1.7-1.45 2.1-2.5c0.4-1.050 0.6-2.6 0.6-4.65v-17.9h4.8v18.15c0 2.3-0.1 3.95-0.25 4.85-0.3 1.45-0.85 2.65-1.55 3.65s-1.85 1.85-3.3 2.5c-1.3 0.55-2.85 0.85-4.9 0.95h-0.2c-0.35 0-0.65 0-1 0-0.45 0-0.85 0-1.35 0-2.1-0.1-3.6-0.4-4.9-0.95-1.5-0.65-2.6-1.45-3.3-2.5-0.7-1-1.25-2.25-1.55-3.65-0.2-0.9-0.25-2.55-0.25-4.85v-18.15zM69.55 163.1h5.050v-29.6h-5.050v29.6zM74.7 133.4h-5.25v29.8h5.25v-29.8zM69.65 133.6h4.8v29.4h-4.8v-29.4zM112.2 142.35l4.95 0.8c0.3-2 1.050-3.5 2.3-4.55 1.3-1.050 3.050-1.6 5.35-1.6s4 0.45 5.1 1.4c1.1 0.95 1.7 2.050 1.7 3.3 0 1.15-0.5 2-1.5 2.7-0.7 0.45-2.4 1-5.15 1.7-3.7 0.95-6.25 1.75-7.65 2.4-1.4 0.7-2.5 1.6-3.25 2.8-0.7 1.2-1.1 2.55-1.1 4 0 1.3 0.3 2.55 0.9 3.65 0.6 1.15 1.4 2.050 2.45 2.8 0.8 0.55 1.85 1.050 3.2 1.45s2.8 0.6 4.35 0.6c2.3 0 4.35-0.35 6.1-1s3.050-1.6 3.9-2.7c0.85-1.15 1.4-2.7 1.75-4.6l-4.9-0.65c-0.2 1.5-0.85 2.7-1.95 3.55-1.050 0.85-2.6 1.3-4.55 1.3-2.3 0-3.95-0.4-4.95-1.15s-1.5-1.65-1.5-2.65c0-0.65 0.2-1.25 0.6-1.75 0.4-0.55 1.050-1 1.9-1.35 0.5-0.2 2-0.6 4.45-1.3 3.55-0.95 6.050-1.7 7.45-2.35 1.4-0.6 2.5-1.5 3.3-2.65s1.2-2.6 1.2-4.3c0-1.65-0.5-3.25-1.45-4.75-1-1.5-2.4-2.6-4.2-3.45-1.85-0.8-3.9-1.2-6.25-1.2-3.85 0-6.8 0.8-8.8 2.4-1.95 1.65-3.2 4-3.75 7.15zM124.85 132.75c-3.85 0-6.85 0.8-8.85 2.4-2.050 1.6-3.35 4.050-3.9 7.2v0.1h0.1l5.050 0.8v-0.1c0.25-1.95 1.050-3.45 2.3-4.5s3.050-1.55 5.3-1.55c2.25 0 3.95 0.45 5.050 1.4 1.1 0.9 1.65 2 1.65 3.25 0 1.1-0.45 1.95-1.45 2.6-0.7 0.45-2.4 1-5.1 1.7-3.75 0.95-6.25 1.75-7.65 2.4-1.45 0.7-2.55 1.65-3.3 2.85s-1.1 2.6-1.1 4.050c0 1.35 0.3 2.6 0.9 3.7 0.6 1.15 1.45 2.050 2.5 2.85 0.8 0.6 1.9 1.1 3.25 1.45 1.35 0.4 2.8 0.6 4.35 0.6 2.35 0 4.4-0.35 6.15-1 1.75-0.7 3.1-1.6 3.95-2.75s1.4-2.7 1.75-4.65v-0.1h-0.1l-5-0.7v0.1c-0.2 1.5-0.85 2.65-1.9 3.5s-2.55 1.25-4.45 1.25c-2.25 0-3.9-0.4-4.85-1.15s-1.45-1.6-1.45-2.6c0-0.65 0.2-1.2 0.6-1.7s1-0.95 1.9-1.3c0.45-0.15 1.9-0.6 4.4-1.3 3.55-0.95 6.050-1.7 7.45-2.35 1.4-0.6 2.55-1.5 3.35-2.65s1.2-2.65 1.2-4.35c0-1.7-0.5-3.3-1.5-4.8s-2.45-2.65-4.25-3.45c-1.95-0.8-4.050-1.2-6.35-1.2zM112.3 142.3c0.55-3.050 1.85-5.4 3.8-6.95 2-1.55 4.9-2.35 8.75-2.35 2.3 0 4.35 0.4 6.2 1.2 1.8 0.8 3.2 1.95 4.2 3.4 0.95 1.45 1.45 3 1.45 4.65 0 1.7-0.4 3.1-1.2 4.25s-1.9 2-3.25 2.6c-1.4 0.6-3.9 1.4-7.4 2.3-2.6 0.7-3.95 1.1-4.45 1.3-0.9 0.35-1.55 0.8-1.95 1.35-0.45 0.55-0.65 1.15-0.65 1.8 0 1.050 0.5 1.95 1.5 2.75s2.7 1.15 5 1.15c2 0 3.5-0.45 4.6-1.3 1.050-0.85 1.75-2.050 1.95-3.55l4.7 0.65c-0.3 1.85-0.9 3.35-1.7 4.45s-2.1 2-3.85 2.7c-1.75 0.65-3.75 1-6.1 1-1.55 0-3-0.2-4.3-0.6s-2.35-0.85-3.15-1.45c-1.050-0.75-1.85-1.65-2.45-2.75s-0.9-2.3-0.9-3.6c0-1.4 0.35-2.75 1.1-3.9 0.7-1.2 1.8-2.1 3.2-2.75s3.95-1.5 7.65-2.4c2.7-0.7 4.45-1.25 5.15-1.7 1-0.65 1.55-1.6 1.55-2.75 0-1.3-0.6-2.45-1.7-3.4-1.15-0.95-2.9-1.45-5.2-1.45s-4.1 0.55-5.4 1.6c-1.25 1.050-2.050 2.6-2.35 4.55l-4.8-0.8zM236.4 142.35l4.95 0.8c0.3-2 1.050-3.5 2.3-4.55 1.3-1.050 3.050-1.6 5.35-1.6s4 0.45 5.15 1.4c1.1 0.95 1.65 2.050 1.65 3.3 0 1.15-0.5 2-1.45 2.7-0.7 0.45-2.4 1-5.1 1.7-3.7 0.95-6.25 1.75-7.65 2.4-1.45 0.7-2.5 1.6-3.25 2.8s-1.1 2.55-1.1 4c0 1.3 0.3 2.55 0.9 3.65 0.6 1.15 1.4 2.050 2.45 2.8 0.8 0.55 1.85 1.050 3.2 1.45s2.8 0.6 4.35 0.6c2.3 0 4.35-0.35 6.1-1s3.050-1.6 3.9-2.7c0.85-1.15 1.4-2.7 1.75-4.6l-4.9-0.65c-0.2 1.5-0.9 2.7-1.95 3.55s-2.55 1.3-4.5 1.3c-2.3 0-3.95-0.4-4.95-1.15s-1.5-1.65-1.5-2.65c0-0.65 0.2-1.25 0.6-1.75 0.4-0.55 1.050-1 1.9-1.35 0.5-0.2 2-0.6 4.45-1.3 3.55-0.95 6.050-1.7 7.45-2.35 1.4-0.6 2.5-1.5 3.3-2.65s1.2-2.6 1.2-4.3c0-1.65-0.5-3.25-1.45-4.75-1-1.5-2.35-2.6-4.2-3.45-1.85-0.8-3.9-1.2-6.25-1.2-3.85 0-6.8 0.8-8.8 2.4-2.050 1.65-3.3 4-3.9 7.15zM249.050 132.75c-3.85 0-6.85 0.8-8.85 2.4s-3.35 4-3.9 7.2v0.1h0.1l5.050 0.8v-0.1c0.25-1.95 1.050-3.45 2.3-4.5s3.050-1.55 5.3-1.55c2.25 0 3.95 0.45 5.050 1.4 1.1 0.9 1.6 2 1.6 3.25 0 1.1-0.45 1.95-1.45 2.6-0.65 0.45-2.4 1-5.1 1.7-3.75 0.95-6.25 1.75-7.65 2.4-1.45 0.7-2.55 1.65-3.3 2.85s-1.1 2.6-1.1 4.050c0 1.3 0.3 2.55 0.9 3.7s1.45 2.050 2.5 2.85c0.8 0.6 1.9 1.1 3.25 1.45 1.35 0.4 2.8 0.6 4.35 0.6 2.3 0 4.4-0.35 6.15-1 1.75-0.7 3.1-1.6 3.95-2.75s1.45-2.7 1.75-4.65v-0.1h-0.1l-5-0.7v0.1c-0.2 1.45-0.85 2.65-1.9 3.5s-2.55 1.25-4.45 1.25c-2.3 0-3.9-0.4-4.9-1.15-0.95-0.75-1.45-1.6-1.45-2.6 0-0.6 0.2-1.2 0.6-1.7s1-0.95 1.9-1.3c0.45-0.15 1.9-0.6 4.45-1.3 3.55-0.95 6.050-1.75 7.45-2.35s2.55-1.5 3.35-2.65c0.8-1.15 1.25-2.6 1.25-4.35 0-1.7-0.5-3.3-1.5-4.8s-2.45-2.65-4.25-3.45c-1.9-0.8-4-1.2-6.35-1.2zM236.55 142.3c0.55-3.050 1.85-5.4 3.8-6.95 2-1.55 4.9-2.35 8.75-2.35 2.3 0 4.4 0.4 6.2 1.2s3.2 1.95 4.2 3.4c0.95 1.45 1.45 3 1.45 4.65 0 1.7-0.4 3.1-1.2 4.25-0.75 1.15-1.85 2-3.25 2.6s-3.9 1.4-7.4 2.3c-2.6 0.7-3.95 1.1-4.45 1.3-0.9 0.35-1.55 0.8-1.95 1.35-0.45 0.55-0.65 1.15-0.65 1.8 0 1.050 0.5 1.95 1.5 2.75s2.7 1.15 5 1.15c1.95 0 3.5-0.45 4.6-1.3 1.050-0.85 1.75-2.050 1.95-3.55l4.7 0.65c-0.3 1.85-0.9 3.35-1.7 4.45s-2.1 2-3.85 2.7c-1.75 0.65-3.8 1-6.1 1-1.55 0-3-0.2-4.3-0.6s-2.35-0.85-3.15-1.45c-1.050-0.75-1.85-1.65-2.45-2.75s-0.9-2.35-0.9-3.6c0-1.4 0.35-2.75 1.1-3.9 0.7-1.2 1.8-2.1 3.2-2.75s3.95-1.5 7.65-2.4c2.75-0.7 4.45-1.25 5.15-1.7 1-0.65 1.5-1.6 1.5-2.75 0-1.3-0.55-2.45-1.7-3.4s-2.9-1.45-5.2-1.45c-2.3 0-4.1 0.55-5.4 1.6-1.25 1.050-2.050 2.6-2.35 4.55l-4.75-0.8zM186.4 159.5c-1.3 0-2.45-0.3-3.4-0.9-1-0.6-1.7-1.4-2.050-2.45-0.4-1-0.6-2.55-0.6-4.6v-18h-5v18.2c0 2.3 0.1 3.95 0.3 4.85 0.3 1.45 0.8 2.65 1.55 3.7s1.85 1.9 3.35 2.5c1.5 0.65 3.15 0.85 4.95 0.95 0.5 0 0.95 0.050 1.35 0 0.4 0 0.7 0 1.15 0 1.8-0.1 3.45-0.3 4.95-0.95s2.6-1.5 3.35-2.5c0.75-1.050 1.25-2.3 1.55-3.7 0.2-0.95 0.3-2.55 0.3-4.85v-18.2h-5v18c0 2.050-0.2 3.6-0.6 4.6s-1.1 1.8-2.1 2.45c-1 0.6-2.1 0.9-3.4 0.9-0.1 0-0.4 0-0.65 0zM180.45 133.5h-5.2v18.3c0 2.35 0.1 3.95 0.3 4.9 0.3 1.45 0.85 2.7 1.6 3.75s1.85 1.9 3.4 2.55c1.7 0.7 3.55 0.9 4.95 0.95h0.15c0.45 0 0.85 0.050 1.25 0 0.35 0 0.7 0 1.15 0v0c2.1-0.1 3.6-0.4 4.95-0.95 1.55-0.65 2.65-1.5 3.4-2.55s1.25-2.3 1.6-3.75c0.2-0.95 0.3-2.6 0.3-4.9v-18.3h-5.3v18.1c0 2.050-0.2 3.55-0.6 4.55s-1.050 1.8-2.050 2.4c-0.95 0.6-2.1 0.85-3.35 0.9h-0.1c-0.15 0-0.3 0-0.5 0-1.25 0-2.4-0.3-3.35-0.9s-1.65-1.4-2.050-2.4c-0.4-1-0.6-2.55-0.6-4.55v-18.1zM175.45 133.7h4.8v17.9c0 2.050 0.2 3.6 0.6 4.65 0.4 1 1.1 1.85 2.1 2.5 1 0.6 2.15 0.9 3.45 0.9 0.15 0 0.35 0 0.5 0h0.1c1.3 0 2.45-0.3 3.45-0.9s1.7-1.45 2.1-2.45c0.4-1 0.6-2.6 0.6-4.65v-17.9h4.8v18.1c0 2.3-0.1 3.95-0.25 4.85-0.3 1.4-0.8 2.65-1.55 3.7-0.75 1-1.8 1.85-3.3 2.5-1.3 0.55-2.85 0.85-4.9 0.95h-0.050c-0.4 0-0.75 0.050-1.15 0-0.4 0-0.8 0-1.25 0h-0.15c-1.4-0.050-3.25-0.25-4.9-0.95-1.5-0.65-2.6-1.45-3.3-2.5-0.75-1.050-1.25-2.25-1.55-3.7-0.2-0.9-0.3-2.55-0.3-4.85v-18.15zM68.8 171.45c0 1.9 1.4 3.3 3.3 3.3s3.25-1.35 3.25-3.3c0-1.9-1.25-3.25-3.25-3.25-2.050 0.050-3.3 1.45-3.3 3.25zM72.050 168.15c-1.95 0-3.35 1.35-3.35 3.35 0 1.95 1.45 3.4 3.4 3.4s3.35-1.4 3.35-3.4c-0.050-2-1.4-3.35-3.4-3.35zM72.1 174.65c-1.85 0-3.2-1.35-3.2-3.2s1.3-3.15 3.15-3.15c1.9 0 3.15 1.25 3.15 3.15s-1.25 3.2-3.1 3.2zM17.3 163.7h-7.25c-1.5 0-2.75-1.3-2.75-2.9v-38.8h4.7v11.65h5.45c8.65 0 13.4 6.2 13.4 15.2 0.1 9.1-4.7 14.85-13.55 14.85zM16.3 137.85h-4.15l-0.15 19.9c0 1 0.75 1.8 1.7 1.8h2.5c5.65 0 9.65-4.2 9.65-10.75-0.050-6.6-3.85-10.95-9.55-10.95zM12.1 121.9h-4.9v38.9c0 1.65 1.3 3 2.85 3h7.2c4.15 0 7.45-1.2 9.8-3.6 2.55-2.6 3.9-6.5 3.85-11.35 0-9.45-5.15-15.3-13.5-15.3h-5.3v-11.65zM7.4 122.1h4.45v11.65h5.55c8.2 0 13.3 5.8 13.3 15.1 0.050 4.8-1.25 8.65-3.8 11.2-2.35 2.35-5.6 3.55-9.65 3.55h-7.2c-1.45 0-2.65-1.25-2.65-2.8v-38.7zM16.3 137.75h-4.25v0.1l-0.15 19.9c0 1.050 0.8 1.9 1.8 1.9h2.5c5.85 0 9.75-4.35 9.75-10.85-0.050-6.6-3.9-11.050-9.65-11.050zM12.25 137.95h4.050c5.6 0 9.4 4.35 9.4 10.85 0 6.35-3.85 10.65-9.55 10.65h-2.5c-0.85 0-1.6-0.8-1.6-1.7l0.2-19.8z" />
<glyph unicode="&#xe605;" d="M256 128c-28.006 0-50.662-22.938-50.662-51.2s22.656-51.2 50.662-51.2c27.981 0 50.663 22.938 50.663 51.2s-22.682 51.2-50.663 51.2zM148.48 185.395l35.84-36.199c39.577 39.987 103.757 39.987 143.36 0l35.84 36.199c-59.392 60.007-155.674 60.007-215.040 0zM76.8 257.818l35.814-36.199c79.181 79.975 207.539 79.975 286.72 0l35.866 36.199c-98.969 99.968-259.431 99.968-358.4 0zM5.12 330.215l35.84-36.199c118.784 119.962 311.322 119.962 430.080 0l35.84 36.199c-138.547 139.981-363.213 139.981-501.76 0z" />
<glyph unicode="&#xe611;" d="M168.474 168.986c-6.938-6.861-18.125-6.861-25.063 0-6.912 6.861-6.938 17.945 0 24.832l100.045 97.997c6.938 6.861 18.151 6.861 25.063 0l100.045-98.023c6.938-6.887 6.938-17.971 0-24.832s-18.125-6.861-25.063 0l-87.527 80.41-87.501-80.384z" />
<glyph unicode="&#xe612;" d="M194.586 142.899c-6.861-6.938-6.861-18.151 0-25.063 6.835-6.938 17.946-6.938 24.807 0l98.048 100.019c6.861 6.938 6.861 18.151 0 25.063l-98.048 100.045c-6.861 6.938-17.946 6.938-24.807 0s-6.861-18.125-0.025-25.037l80.409-87.527-80.384-87.501z" />
<glyph unicode="&#xe613;" d="M343.501 291.815c6.938 6.861 18.151 6.861 25.063 0 6.938-6.861 6.938-17.945 0-24.806l-100.019-98.048c-6.938-6.861-18.15-6.861-25.063 0l-100.045 98.048c-6.912 6.861-6.912 17.945 0 24.806 6.938 6.861 18.125 6.861 25.063 0l87.501-80.384 87.501 80.384z" />
<glyph unicode="&#xe614;" d="M317.415 142.899c6.861-6.938 6.861-18.151 0-25.063-6.861-6.938-17.945-6.938-24.807 0l-98.048 100.019c-6.861 6.938-6.861 18.151 0 25.063l98.048 100.045c6.861 6.938 17.945 6.938 24.807 0s6.861-18.125 0-25.063l-80.384-87.501 80.384-87.501z" />
<glyph unicode="&#xe616;" d="M143.352 40.499c-6.861-6.938-6.861-18.125 0-25.063s17.946-6.938 24.807 0l200.448 202.419c6.861 6.938 6.861 18.151 0 25.063l-200.448 202.445c-6.861 6.938-17.946 6.938-24.807 0s-6.861-18.125 0-25.063l182.784-189.901-182.784-189.901z" />
<glyph unicode="&#xe617;" d="M66.099 343.015c-6.938 6.861-18.151 6.861-25.063 0-6.912-6.835-6.912-17.946 0-24.807l202.445-200.448c6.938-6.861 18.125-6.861 25.063 0l202.445 200.448c6.912 6.861 6.938 17.945 0 24.806s-18.176 6.861-25.063 0.026l-189.927-182.81-189.901 182.784z" />
<glyph unicode="&#xe618;" d="M368.615 40.499c6.861-6.938 6.861-18.125 0-25.063s-17.945-6.938-24.807 0l-200.448 202.419c-6.861 6.938-6.861 18.151 0 25.063l200.448 202.445c6.861 6.938 17.945 6.938 24.807 0s6.861-18.125 0-25.063l-182.784-189.901 182.784-189.901z" />
<glyph unicode="&#xe631;" d="M0 132.857v122.857q0 12 8.572 20.572t20.857 8.572q12 0 20.572-8.572t8.572-20.572v-122.857q0-12.286-8.429-20.857t-20.715-8.572-20.857 8.572-8.572 20.857zM68.857 289.714q0 33.428 18.286 61.571t49.143 43.857l-20.286 37.428q-2 3.714 1.428 5.714 3.715 1.715 5.715-1.714l20.572-37.714q27.143 12 57.429 12t57.428-12l20.572 37.714q2 3.429 5.714 1.714 3.428-2 1.428-5.714l-20.286-37.428q30.572-15.714 48.857-43.857t18.286-61.571h-264.286zM70 89.143v190.286h262.286v-190.286q0-13.143-9.143-22.286t-22-9.143h-21.428v-64.857q0-12.286-8.572-20.857t-20.857-8.572-20.857 8.572-8.572 20.857v64.857h-39.428v-64.857q0-12.286-8.572-20.857t-20.857-8.572q-12 0-20.571 8.572t-8.572 20.857l-0.285 64.857h-21.143q-13.143 0-22.286 9.143t-9.143 22.286zM130 348.572q0-4.571 3.143-7.857t7.714-3.286 7.857 3.286 3.286 7.857-3.286 7.857-7.857 3.285-7.714-3.285-3.143-7.857zM250.286 348.572q0-4.571 3.286-7.857t7.857-3.286 7.714 3.286 3.143 7.857-3.143 7.857-7.714 3.285-7.857-3.285-3.286-7.857zM343.715 132.857v122.857q0 12.286 8.572 20.715t20.572 8.428q12.286 0 20.857-8.428t8.572-20.714v-122.857q0-12.286-8.572-20.857t-20.857-8.572q-12 0-20.572 8.572t-8.572 20.857z" horiz-adv-x="403" />
<glyph unicode="&#xe632;" d="M0 217.714q0 65.143 32.286 106.857 32 41.143 81.143 41.143 20.572 0 50.572-8.572 29.714-8.572 39.428-8.572 12.857 0 40.857 9.714 29.143 9.715 49.429 9.715 34 0 60.857-18.572 14.857-10.286 29.714-28.572-22.572-19.143-32.572-33.714-18.572-26.857-18.572-59.143 0-35.428 19.714-63.714t45.143-36q-11.143-35.714-35.143-71.428-36.857-56-73.428-56-14 0-40 9.143-24.572 9.143-43.143 9.143-17.429 0-40.571-9.428-23.143-9.714-37.715-9.714-43.429 0-86 74-42 74.572-42 143.715zM195.143 359.714q0.857 42.572 22.285 73.429 21.143 30.571 71.428 42.286 0.286-0.857 0.714-3.143t0.714-3.143q0-1.143 0.143-2.857t0.143-2.857q0-17.429-8.286-38.857-8.572-21.428-26.572-39.428-15.428-15.429-30.857-20.572-10.571-3.143-29.715-4.857z" horiz-adv-x="403" />
<glyph unicode="&#xe633;" d="M0 28.857v159.143h194.857v-186zM0 212v161.428l194.857 26.857v-188.286h-194.857zM216.286-0.857v188.857h259.143v-224.572zM216.286 212v191.143l259.143 35.714v-226.857h-259.143z" horiz-adv-x="476" />
<glyph unicode="&#xe641;" d="M5.143 112q0 78.572 72 133.143-2.285 5.429-2.285 14.857 0 5.714 3.143 14t6.857 12.857q-0.285 6.286 2.143 15.143t6.429 12.286q0 39.714 26.429 82.428t62.143 59.857q39.714 18.857 92.572 18.857 38 0 76-15.714 14-6 25.714-13.714t20.286-16 15.714-19.429 12-21.143 9.286-24.143 7.286-25.571 6.286-28l0.286-1.429q15.714-23.714 15.714-42.857 0-4-2.572-11.428t-2.572-10.857q0-0.286 0.428-1t1-1.428 0.572-1q22-32.572 34.428-61.286t12.428-59.572q0-12.286-5.572-28.572t-15.857-16.286q-2.572 0-5.572 2.143t-5.428 5-5.428 7.428-4.572 7.572-3.857 7.428-2.572 5q-0.286 0.286-0.857 0.286l-1.428-1.143q-16.857-44-37.714-63.714 5.714-5.714 17.572-11t19.714-11.857 10.143-18.572q-0.572-1.143-1.143-4.572t-2-5.143q-18.286-27.714-86.286-27.714-15.143 0-31.572 2.572t-28 5.714-29.857 8.572q-4.286 1.428-6.572 2-4 1.143-13.143 1.286t-11.428 0.428q-11.714-12.857-36.428-18.572t-48.143-5.715q-10 0-19.715 0.428t-26.572 2.572-28.857 5.857-21.286 11.428-9.285 18.286q0 11.428 2.857 17t11.715 13.857q3.143 0.572 11.572 3.714t14.143 3.428q1.143 0 4 0.572 0.572 0.572 0.572 1.143l-0.572 0.857q-13.715 3.143-30.857 30.143t-20.857 44.714l-1.428 0.857q-1.143 0-3.428-5.714-5.143-11.714-15.572-21.286t-22.143-10.714h-0.286q-1.143 0-1.714 1.286t-1.428 1.572q-6.572 15.428-6.572 28.572z" />
<glyph unicode="&#xe642;" d="M0 281.714q0 48.286 27.857 88.857t75.429 63.857 103.857 23.285q50.286 0 95-18.857t74.857-52.143 39-74.428q-8.857 1.143-20 1.143-48.286 0-88.857-22t-63.857-59.572-23.285-82.143q0-22.286 6.572-43.428-10-0.857-19.428-0.857-7.428 0-14.286 0.428t-15.714 1.857-12.714 2-15.572 3-14.286 3l-72.286-36.286 20.572 62.286q-82.857 58-82.857 140zM108.572 343.714q0-11.143 9.429-18.428t21.714-7.286q11.714 0 18.857 7t7.143 18.714-7.143 18.857-18.857 7.143q-12.285 0-21.715-7.286t-9.429-18.714zM233.143 152q0 40.857 23.285 75.428t63.857 54.714 88.857 20.143q46 0 86.572-20.143t65-54.857 24.428-75.285q0-33.428-19.572-63.857t-53-55.286l15.715-51.714-56.857 31.143q-42.857-10.572-62.286-10.572-48.286 0-88.857 20.143t-63.857 54.714-23.286 75.428zM253.715 343.714q0-11.143 9.428-18.428t21.714-7.286q11.714 0 18.714 7t7 18.714-7 18.857-18.714 7.143q-12.286 0-21.714-7.286t-9.428-18.714zM331.429 198.857q0-8 6.428-14.428t14.143-6.428q11.428 0 18.714 6.286t7.286 14.572q0 8-7.286 14.286t-18.714 6.286q-7.714 0-14.143-6.428t-6.428-14.143zM445.429 198.857q0-8 6.428-14.428t14.143-6.428q11.143 0 18.572 6.286t7.428 14.572q0 8-7.428 14.286t-18.572 6.286q-7.714 0-14.143-6.428t-6.428-14.143z" horiz-adv-x="585" />
<glyph unicode="&#xe643;" d="M16.286 308.857q0 34 13.285 64.857t35.572 53.143 53.143 35.428 64.572 13.143q45.143 0 83.571-22.286t60.714-60.714 22.286-83.572-22.286-83.428-60.714-60.572-83.572-22.286q-18.286 0-37.428 4-6 1.428-9.286 6.714t-1.857 11.286q1.429 5.714 6.571 9t11.143 2.143q14.571-3.714 30.857-3.714 27.714 0 53.143 10.857t43.715 29.143 29.143 43.714 10.857 53.143-10.857 53.143-29.143 43.714-43.714 29.143-53.143 10.857-53.143-10.857-43.715-29.143-29.143-43.714-10.857-53.143q0-32.571 14.857-62.285 2.857-5.714 1-11.428t-7.285-8.572-11.285-0.857-8.715 7.429q-18.286 35.143-18.286 75.714zM32.429 47.572q3 34.714 8.429 62t15.429 53.143 19.715 44.428 21.143 35.714q17.429 25.714 37.715 47.143-4.572 10-4.572 22 0 22.857 16.143 39t39 16.143 39-16.143 16.143-39-16.286-39-38.857-16.143q-17.143 0-31.715 10-17.714-19.143-32.857-41.714-70.572-106-57.715-245.428 0.285-6.286-3.572-11t-9.857-5.286h-1.428q-5.715 0-10 3.857t-4.857 9.572q-4 36-1 70.714z" horiz-adv-x="366" />
<glyph unicode="&#xe644;" d="M0 148.286q0 32.857 19.857 70t56.429 73.714q48.286 48.286 97.572 67.428t70.429-2q18.572-18.286 5.714-59.714-1.143-4-0.286-5.714t2.857-2 4.143 0.143 3.857 1l1.714 0.572q39.714 16.857 70.286 16.857t43.714-17.428q12.857-18 0-50.857-0.572-3.714-1.286-5.714t1.286-3.571 3.428-2.143 4.857-1.714q16.286-5.143 29.428-13.428t22.857-23.286 9.714-33.286q0-19.428-10.572-39.857t-31.143-39.143-48.143-33.572-64.572-23.714-77.286-8.857-78.572 9.572-68.715 26.572-49 43.143-18.572 57zM51.715 128q2.572-27.428 25.429-48.572t59.571-31.143 78.428-6q63.714 6.572 105.572 40.428t37.857 75.572q-2.572 27.428-25.428 48.572t-59.572 31.143-78.428 6q-63.714-6.571-105.572-40.428t-37.857-75.572zM118.143 102.429q-11.572 26.428 1.857 53.572 13.428 26.572 43.286 39.714t60.143 5.428q31.715-8.286 45.285-34.143t0.714-54.428q-12.857-29.143-45.143-42.857t-64-3.428q-30.571 9.714-42.143 36.143zM141.429 110.143q2.571-9.857 12.286-14.428t21.285-0.714 17.857 13.572q6 9.714 3.143 19.714t-12.857 14.286q-9.714 4-20.857 0.286t-17.143-13.143q-6.286-9.714-3.714-19.572zM201.429 150.572q-4.857-8.857 3.714-12.857 4-1.428 8.286 0.143t6.286 5.286q2.286 3.714 1 7.572t-5 5.286q-4 1.428-8.143-0.143t-6.143-5.286zM332.857 400.572q-1.714 8 2.714 14.714t12.428 8.429q35.143 7.428 69.714-3.286t59.428-38.428q24.857-27.428 32.143-63.572t-3.857-69q-2.572-7.714-9.714-11.428t-14.857-1.143-11.428 9.714-1.428 14.857q8 23.428 2.857 49.143t-22.857 45.143q-17.714 19.714-42.286 27.286t-49.428 2.428q-8-1.715-14.857 2.714t-8.572 12.428zM349.715 335.714q-1.428 6.857 2.286 12.714t10.572 7.286q17.143 3.714 34-1.572t28.857-18.714 15.572-31-1.857-33.572q-2.286-6.572-8.428-9.714t-12.714-1.143q-6.572 2.286-9.714 8.429t-1.143 12.714q5.714 18-6.857 31.714t-30.572 10q-6.857-1.429-12.857 2.286t-7.143 10.572z" />
<glyph unicode="&#xe645;" d="M0 218.857q0 53.428 23.857 99.857t65.572 77 92.857 39.143v-138.572q0-72-36.143-131.285t-94.429-87.572q-51.715 61.428-51.715 141.428zM113.715 26.857q39.429 24.857 67.286 60.286t37.572 76.572q10-41.143 37.857-76.572t67.286-60.286q-48.857-26.857-105.143-26.857-56 0-104.857 26.857zM256.572 296.286v138.572q51.143-8.572 92.857-39.143t65.572-77 23.857-99.857q0-80-51.714-141.428-58.286 28.286-94.428 87.572t-36.143 131.286z" />
<glyph unicode="&#xe647;" d="M491.52 376.499c-17.357-7.706-35.968-12.877-55.527-15.232 19.968 11.955 35.303 30.899 42.496 53.453-18.663-11.059-39.347-19.123-61.337-23.45-17.639 18.791-42.752 30.515-70.553 30.515-53.376 0-96.64-43.264-96.64-96.614 0-7.577 0.845-14.951 2.509-22.016-80.307 4.019-151.527 42.496-199.168 100.967-8.346-14.259-13.133-30.873-13.133-48.589 0-33.536 17.075-63.104 43.008-80.435-15.847 0.512-30.746 4.839-43.776 12.083 0-0.41 0-0.793 0-1.203 0-46.822 33.331-85.863 77.517-94.771-8.090-2.202-16.64-3.379-25.472-3.379-6.221 0-12.263 0.589-18.176 1.715 12.288-38.4 48-66.33 90.265-67.098-33.075-25.933-74.727-41.37-120.013-41.37-7.808 0-15.488 0.461-23.040 1.357 42.752-27.418 93.542-43.418 148.147-43.418 177.741 0 274.944 147.251 274.944 274.97 0 4.173-0.077 8.346-0.281 12.493 18.893 13.619 35.251 30.643 48.231 50.022z" />
<glyph unicode="&#xe648;" d="M256 476.16c-135.731 0-245.76-110.029-245.76-245.76s110.029-245.76 245.76-245.76 245.76 110.029 245.76 245.76-110.029 245.76-245.76 245.76zM355.943 274.816c0.103-2.074 0.154-4.173 0.154-6.272 0-63.949-48.691-137.703-137.728-137.703-27.315 0-52.787 7.987-74.189 21.76 3.789-0.461 7.655-0.666 11.546-0.666 22.682 0 43.546 7.731 60.135 20.736-21.171 0.384-39.066 14.387-45.235 33.587 2.944-0.563 5.99-0.87 9.088-0.87 4.429 0 8.704 0.589 12.749 1.69-22.119 4.454-38.835 24.013-38.835 47.463 0 0.205 0 0.41 0.025 0.589 6.528-3.609 14.003-5.786 21.914-6.042-12.953 8.678-21.504 23.475-21.504 40.295 0 8.883 2.381 17.203 6.554 24.345 23.859-29.312 59.546-48.589 99.763-50.585-0.819 3.533-1.255 7.219-1.255 11.034 0 26.727 21.683 48.41 48.409 48.41 13.926 0 26.496-5.863 35.328-15.283 11.034 2.15 21.402 6.169 30.745 11.725-3.635-11.29-11.289-20.787-21.299-26.778 9.805 1.178 19.123 3.763 27.801 7.629-6.477-9.702-14.72-18.227-24.166-25.063z" />
<glyph unicode="&#xe649;" d="M384 380.698h-73.113c-8.653 0-18.304-11.366-18.304-26.598v-52.787h91.418v-75.264h-91.418v-226.048h-86.323v226.023h-78.259v75.29h78.259v44.288c0 63.514 44.083 115.2 104.601 115.2h73.139v-80.103z" />
<glyph unicode="&#xe650;" d="M256 476.16c-135.731 0-245.76-110.029-245.76-245.76s110.029-245.76 245.76-245.76 245.76 110.029 245.76 245.76-110.029 245.76-245.76 245.76zM314.189 306.33h-36.941c-4.352 0-9.216-5.76-9.216-13.415v-26.675h46.183v-38.042h-46.183v-114.202h-43.623v114.202h-39.527v38.016h39.527v22.375c0 32.103 22.272 58.189 52.839 58.189h36.941v-40.448z" />
<glyph unicode="&#xe651;" d="M50.944 343.322c0-38.221 12.775-65.843 37.939-82.048 20.608-13.286 44.544-15.283 56.986-15.283 3.021 0 5.427 0.128 7.117 0.231 0 0-3.942-25.677 15.104-51.098l-0.87 0.026c-32.999 0-140.647-6.912-140.647-95.411 0-90.035 98.867-94.592 118.682-94.592 1.561 0 2.458 0.026 2.458 0.026 0.231 0 1.638-0.051 4.045-0.051 12.723 0 45.619 1.587 76.186 16.461 39.629 19.226 59.75 52.711 59.75 99.456 0 45.184-30.618 72.064-52.992 91.725-13.645 11.981-25.446 22.323-25.446 32.384 0 10.24 8.601 17.946 19.507 27.699 17.613 15.769 34.253 38.221 34.253 80.665 0 37.325-4.839 62.362-34.662 78.234 3.123 1.587 14.106 2.739 19.559 3.507 16.154 2.202 39.782 4.711 39.782 17.895v2.534h-117.709c-1.178-0.026-119.040-4.403-119.040-112.358zM240.973 112.589c2.253-35.993-28.544-62.567-74.778-65.92-46.951-3.456-85.632 17.69-87.885 53.683-1.075 17.28 6.502 34.202 21.376 47.693 15.104 13.645 35.789 22.067 58.342 23.757 2.662 0.154 5.299 0.281 7.936 0.281 43.443 0 72.883-25.549 75.008-59.495zM210.227 367.975c11.546-40.627-5.888-83.098-33.664-90.931-3.2-0.896-6.502-1.357-9.831-1.357-25.472 0-50.688 25.754-60.032 61.235-5.222 19.942-4.813 37.35 1.177 54.118 5.888 16.461 16.461 27.623 29.773 31.36 3.2 0.922 6.528 1.357 9.856 1.357 30.72 0 50.483-12.749 62.72-55.782zM408.602 279.501v76.8h-48.64v-76.8h-76.8v-48.64h76.8v-76.8h48.64v76.8h76.8v48.64h-76.8z" />
<glyph unicode="&#xe652;" d="M232.883 299.904c-6.169 21.76-16.154 28.185-31.693 28.185-1.664 0-3.353-0.231-4.966-0.666-6.758-1.92-12.083-7.552-15.053-15.872-3.047-8.448-3.251-17.28-0.589-27.315 4.71-17.92 17.459-30.95 30.336-30.95 1.664 0 3.353 0.231 4.966 0.666 14.003 3.968 22.81 25.421 16.999 45.952zM256 476.16c-135.731 0-245.76-110.029-245.76-245.76s110.029-245.76 245.76-245.76c135.757 0 245.76 110.029 245.76 245.76s-110.003 245.76-245.76 245.76zM241.843 124.877c-15.463-7.501-32.077-8.294-38.503-8.294-1.229 0-1.92 0.026-2.023 0.026 0 0-0.487 0-1.255 0-10.035 0-59.981 2.304-59.981 47.795 0 44.697 54.375 48.179 71.040 48.179h0.461c-9.6 12.851-7.603 25.805-7.603 25.805-0.845-0.051-2.099-0.102-3.609-0.102-6.298 0-18.406 0.999-28.8 7.731-12.723 8.167-19.174 22.118-19.174 41.446 0 54.553 59.546 56.755 60.16 56.781h59.469v-1.306c0-6.656-11.93-7.936-20.096-9.063-2.765-0.384-8.295-0.947-9.881-1.741 15.078-8.038 17.511-20.711 17.511-39.552 0-21.427-8.397-32.768-17.305-40.755-5.504-4.915-9.856-8.832-9.856-14.003 0-5.069 5.939-10.291 12.851-16.359 11.289-9.933 26.777-23.527 26.777-46.361 0-23.603-10.163-40.499-30.183-50.227zM371.891 230.631h-38.81v-38.81h-24.576v38.81h-38.81v24.576h38.81v38.784h24.576v-38.809h38.81v-24.551zM210.509 200.934c-1.331 0-2.662-0.051-3.994-0.154-11.367-0.819-21.863-5.094-29.465-12.007-7.526-6.81-11.341-15.385-10.803-24.089 1.126-18.176 20.685-28.851 44.391-27.136 23.373 1.69 38.938 15.13 37.786 33.331-1.101 17.127-15.975 30.055-37.914 30.055z" />
<glyph unicode="&#xe653;" d="M220.57 147.763c-13.44-70.477-29.85-138.061-78.49-173.363-15.001 106.547 22.041 186.547 39.245 271.488-29.338 49.408 3.533 148.787 65.433 124.288 76.16-30.131-65.945-183.629 29.44-202.803 99.61-20.019 140.263 172.8 78.515 235.495-89.241 90.573-259.789 2.099-238.797-127.513 5.094-31.693 37.837-41.319 13.082-85.043-57.114 12.647-74.163 57.703-71.962 117.76 3.533 98.278 88.32 167.091 173.363 176.614 107.571 12.058 208.512-39.475 222.413-140.647 15.693-114.176-48.512-237.85-163.558-228.941-31.155 2.381-44.237 17.817-68.685 32.666z" />
<glyph unicode="&#xe654;" d="M256 476.16c-135.731 0-245.76-110.029-245.76-245.76s110.029-245.76 245.76-245.76 245.76 110.029 245.76 245.76-110.029 245.76-245.76 245.76zM272.794 172.135c-15.744 1.229-22.349 9.037-34.688 16.538-6.81-35.635-15.078-69.786-39.68-87.603-7.577 53.837 11.161 94.259 19.84 137.165-14.822 24.934 1.792 75.162 33.049 62.797 38.477-15.232-33.331-92.775 14.873-102.477 50.329-10.112 70.861 87.322 39.654 118.989-45.082 45.747-131.226 1.049-120.627-64.461 2.585-16.025 19.097-20.864 6.605-42.983-28.851 6.4-37.479 29.159-36.352 59.495 1.792 49.689 44.621 84.454 87.577 89.293 54.349 6.067 105.344-19.942 112.409-71.066 7.911-57.728-24.551-120.192-82.663-115.687z" />
<glyph unicode="&#xe655;" d="M399.36 20.582c-19.865-9.472-37.888-16.154-53.991-19.968-16.128-3.789-33.587-5.735-52.301-5.735-21.274 0-40.064 2.739-56.448 8.166-16.333 5.453-30.259 13.209-41.831 23.219-11.546 10.112-19.559 20.787-24.013 32.128-4.48 11.341-6.707 27.776-6.707 49.305v165.223h-51.43v66.663c18.279 6.016 33.971 14.592 46.976 25.83 13.056 11.213 23.501 24.704 31.411 40.448 7.885 15.744 13.286 35.737 16.281 60.057h66.176v-119.065h110.464v-73.933h-110.464v-120.807c0-27.289 1.433-44.825 4.327-52.608 2.816-7.731 8.141-13.926 15.897-18.56 10.342-6.247 22.093-9.37 35.354-9.37 23.577 0 47.002 7.757 70.298 23.245v-74.24z" />
<glyph unicode="&#xe656;" d="M256 476.16c-135.731 0-245.76-110.029-245.76-245.76s110.029-245.76 245.76-245.76c135.731 0 245.735 110.029 245.735 245.76s-109.978 245.76-245.735 245.76zM321.946 124.365c-10.061-4.787-19.149-8.141-27.238-10.087-8.141-1.92-16.998-2.893-26.445-2.893-10.752 0-20.25 1.382-28.518 4.122-8.243 2.739-15.309 6.681-21.146 11.75s-9.881 10.496-12.135 16.231-3.379 14.029-3.379 24.909v83.482h-25.984v33.664c9.216 3.046 17.152 7.399 23.731 13.082 6.579 5.657 11.879 12.467 15.846 20.429 3.994 7.936 6.758 18.073 8.243 30.336h33.433v-60.186h55.782v-37.35h-55.783v-61.031c0-13.798 0.717-22.656 2.176-26.573s4.122-7.040 8.038-9.37c5.223-3.149 11.187-4.762 17.869-4.762 11.904 0 23.757 3.917 35.507 11.776v-37.529z" />
<glyph unicode="&#xe657;" d="M148.685 439.757c-79.104-40.679-128.205-120.858-128.205-209.843 0-16.231 2.048-32.691 5.657-49.101l203.495 185.293c-21.709 19.738-78.746 71.629-80.947 73.651zM353.101 444.775c-30.745 13.978-63.411 21.146-97.127 21.146-23.91 0-47.488-3.968-70.4-11.29l167.501-152.345v142.489zM388.915 424.013v-271.821h89.216c8.781 25.139 13.363 51.277 13.363 77.722 0.026 77.619-38.989 150.323-102.579 194.099zM37.427 142.643c17.255-43.367 47.565-80.666 86.221-107.111v185.6l-52.327-47.642c-17.869-16.256-32.794-29.849-33.895-30.848zM159.488 14.745c23.936-10.803 48.973-17.485 74.752-19.865h43.238c77.286 7.219 146.611 52.966 184.295 121.472h-302.285v-101.606z" />
<glyph unicode="&#xe658;" d="M389.12 230.4c0-73.523-59.623-133.12-133.12-133.12-73.523 0-133.12 59.597-133.12 133.12 0 8.755 0.871 17.305 2.509 25.6h-89.549v-176.947c0-37.991 30.771-68.813 68.813-68.813h302.694c37.991 0 68.813 30.797 68.813 68.813v176.947h-89.523c1.613-8.294 2.483-16.845 2.483-25.6zM407.347 450.56h-302.695c-38.016 0-68.813-30.822-68.813-68.813v-74.547h111.462c24.089 34.048 63.795 56.32 108.697 56.32s84.608-22.272 108.697-56.32h111.463v74.547c0 37.991-30.822 68.813-68.813 68.813zM441.011 365.568c0-6.784-5.529-12.288-12.288-12.288h-36.839c-6.759 0-12.288 5.529-12.288 12.288v36.864c0 6.784 5.555 12.288 12.288 12.288h36.839c6.784 0 12.288-5.529 12.288-12.288v-36.864zM337.92 230.4c0 45.261-36.685 81.92-81.92 81.92s-81.92-36.659-81.92-81.92 36.685-81.92 81.92-81.92 81.92 36.659 81.92 81.92z" />
<glyph unicode="&#xe659;" d="M105.013 398.76h297.824v-33.548h-297.824v33.548zM376.948 199.065v131.151h-246.046v-131.151h246.046zM166.582 296.691h175.044v-64.119h-175.044v64.119zM323.727 123.47c10.706 16.39 20.808 35.397 30.171 56.971l-35.796 13.046c-9.31-25.565-20.149-48.94-32.483-70.017h-62.287c-10.323 27.315-21.973 50.673-35.043 70.017l-32.922-13.046c13.579-20.37 24.528-39.33 32.922-56.971h-91.699v-33.182h314.682v33.182h-87.545z" />
<glyph unicode="&#xe660;" d="M178.324 290.121h141.734v-58.84h-141.734v58.84zM255.37 453.572c-122.919 0-222.566-99.48-222.566-222.18s99.647-222.168 222.566-222.168c122.921 0 222.568 99.469 222.568 222.168s-99.647 222.18-222.568 222.18zM130.739 372.498h247.651v-22.512h-247.651v22.512zM355.875 314.681v-105.912h-212.857v105.912h212.857zM378.389 113.089h-259.931v23.024h81.488c-7.087 24.56-16.325 33.385-27.799 50.546l27.799 9.729c11.035-16.294 20.874-35.716 29.586-60.276h52.592c10.416 24.56 19.561 40.001 27.43 61.546l30.221-12.269c-7.896-18.174-16.433-24.718-25.468-49.277h64.083v-23.024z" />
<glyph unicode="&#xe661;" d="M229.665 150.084l-85.327-147.834h282.327l85.335 147.834zM487.806 192l-146.467 253.75h-170.674l146.478-253.75zM146.418 403.743l-146.418-253.659 85.338-147.834 146.416 253.662z" />
<glyph unicode="&#xe663;" d="M416 416h-320c-52.8 0-96-43.2-96-96v-192c0-52.8 43.2-96 96-96h320c52.8 0 96 43.2 96 96v192c0 52.8-43.2 96-96 96zM480 128c0-16.989-6.687-33.031-18.827-45.173-12.142-12.14-28.183-18.827-45.173-18.827h-320c-16.989 0-33.031 6.687-45.172 18.827-12.141 12.142-18.828 28.184-18.828 45.173v192c0 16.989 6.687 33.031 18.828 45.172s28.183 18.828 45.172 18.828h320c16.989 0 33.031-6.687 45.173-18.828s18.827-28.183 18.827-45.172v-192zM192 96l160 128-160 128z" />
<glyph unicode="&#xe664;" d="M416 416h-320c-52.8 0-96-43.2-96-96v-192c0-52.8 43.2-96 96-96h320c52.8 0 96 43.2 96 96v192c0 52.8-43.2 96-96 96zM192 96v256l160-128-160-128z" />
<glyph unicode="&#xe665;" d="M256.001-32c-141.16 0-256.001 114.841-256.001 256s114.841 256 256.001 256c141.161 0 255.999-114.841 255.999-256s-114.838-256-255.999-256zM471.899 188.957c-7.481 2.36-67.682 20.316-136.205 9.349 28.602-78.593 40.239-142.604 42.479-155.904 49.057 33.168 83.979 85.713 93.726 146.555zM341.416 22.381c-3.253 19.185-15.949 86.045-46.649 165.82-0.48-0.164-0.961-0.32-1.44-0.486-123.335-42.979-167.608-128.508-171.543-136.552 37.075-28.912 83.668-46.16 134.218-46.16 30.29 0 59.159 6.195 85.414 17.378zM93.549 77.461c4.954 8.48 64.965 107.842 177.738 144.297 2.852 0.92 5.724 1.785 8.618 2.6-5.49 12.422-11.47 24.857-17.728 37.108-109.199-32.68-215.162-31.315-224.73-31.118-0.066-2.221-0.111-4.445-0.111-6.683 0-56.16 21.29-107.437 56.213-146.204zM41.956 268.452c9.779-0.13 99.868-0.521 202.151 26.641-36.23 64.406-75.306 118.555-81.071 126.46-61.174-28.854-106.901-85.248-121.080-153.101zM204.759 436.25c6.044-8.092 45.759-62.174 81.59-128.007 77.754 29.142 110.67 73.385 114.604 78.987-38.615 34.259-89.391 55.1-144.951 55.1-17.645 0-34.8-2.116-51.243-6.080zM425.261 361.944c-4.608-6.237-41.252-53.209-122.101-86.217 5.089-10.416 9.967-21.009 14.508-31.672 1.608-3.78 3.177-7.542 4.709-11.285 72.759 9.149 145.052-5.514 152.263-7.039-0.484 51.612-18.925 99.005-49.379 136.213z" />
<glyph unicode="&#xe666;" d="M382.833 366.827c-3.441-4.902-32.243-43.615-100.278-69.114-31.352 57.603-66.103 104.925-71.391 112.006 14.388 3.468 29.399 5.32 44.837 5.32 48.615 0 93.044-18.235 126.832-48.212zM269.376 222.038c-98.676-31.898-151.186-118.839-155.521-126.261-30.558 33.921-49.187 78.788-49.187 127.929 0 1.958 0.039 3.905 0.098 5.848 8.372-0.171 101.090-1.366 196.639 27.229 5.476-10.72 10.708-21.601 15.512-32.47-2.532-0.713-5.046-1.47-7.541-2.275zM256 480c-141.385 0-256-114.615-256-256s114.615-256 256-256 256 114.615 256 256-114.615 256-256 256zM256.001 0c-123.515 0-224.001 100.485-224.001 224s100.486 224 224.001 224c123.516 0 223.999-100.486 223.999-224s-100.483-224-223.999-224zM309.959 241.549c-3.973 9.33-8.241 18.599-12.694 27.714 70.742 28.881 102.805 69.982 106.838 75.439 26.646-32.558 42.783-74.026 43.206-119.186-6.309 1.334-69.565 14.164-133.229 6.158-1.341 3.276-2.713 6.567-4.121 9.875zM245.594 286.206c-89.498-23.766-168.325-23.424-176.883-23.311 12.407 59.371 52.418 108.716 105.946 133.963 5.044-6.917 39.236-54.297 70.937-110.652zM288.66 192.25c0.42 0.146 0.84 0.282 1.261 0.426 26.862-69.803 37.971-128.306 40.818-145.093-22.973-9.784-48.233-15.205-74.738-15.205-44.232 0-85.001 15.092-117.441 40.39 3.443 7.039 42.182 81.877 150.1 119.482zM325.732 201.518c59.958 9.596 112.633-6.116 119.18-8.18-8.53-53.237-39.086-99.214-82.010-128.236-1.961 11.638-12.144 67.647-37.17 136.416z" />
<glyph unicode="&#xe681;" d="M256-32c141.385 0 256 114.615 256 256s-114.615 256-256 256-256-114.615-256-256 114.615-256 256-256zM256 432c114.875 0 208-93.125 208-208s-93.125-208-208-208-208 93.125-208 208 93.125 208 208 208zM256 180.62c57.975 0 113.115 15.403 160 42.46-7.287-89.219-76.564-159.080-160-159.080-83.434 0-152.711 69.936-160 159.152 46.885-27.056 102.025-42.532 160-42.532zM128 304c0 26.51 14.327 48 32 48s32-21.49 32-48c0-26.51-14.327-48-32-48s-32 21.49-32 48zM320 304c0 26.51 14.327 48 32 48s32-21.49 32-48c0-26.51-14.327-48-32-48s-32 21.49-32 48z" />
<glyph unicode="&#xe682;" d="M256 480c-141.385 0-256-114.615-256-256s114.615-256 256-256 256 114.615 256 256-114.615 256-256 256zM352 352c17.674 0 32-21.49 32-48s-14.326-48-32-48-32 21.49-32 48 14.326 48 32 48zM160 352c17.673 0 32-21.49 32-48s-14.327-48-32-48-32 21.49-32 48 14.327 48 32 48zM256 32c-83.434 0-152.711 69.936-160 159.152 46.885-27.057 102.025-42.532 160-42.532s113.115 15.403 160 42.46c-7.287-89.219-76.564-159.080-160-159.080z" />
<glyph unicode="&#xe683;" d="M256-32c141.385 0 256 114.615 256 256s-114.615 256-256 256-256-114.615-256-256 114.615-256 256-256zM256 432c114.875 0 208-93.125 208-208s-93.125-208-208-208-208 93.125-208 208 93.125 208 208 208zM128 320c0 17.673 14.327 32 32 32s32-14.327 32-32c0-17.673-14.327-32-32-32s-32 14.327-32 32zM320 320c0 17.673 14.327 32 32 32s32-14.327 32-32c0-17.673-14.327-32-32-32s-32 14.327-32 32zM352.049 166.37l41.164-24.698c-27.981-46.535-78.958-77.672-137.213-77.672s-109.232 31.137-137.213 77.672l41.164 24.698c19.587-32.574 55.271-54.37 96.049-54.37s76.462 21.796 96.049 54.37z" />
<glyph unicode="&#xe684;" d="M256 480c-141.385 0-256-114.615-256-256s114.615-256 256-256 256 114.615 256 256-114.615 256-256 256zM352 352c17.673 0 32-14.327 32-32s-14.327-32-32-32-32 14.327-32 32 14.327 32 32 32zM160 352c17.673 0 32-14.327 32-32s-14.327-32-32-32-32 14.327-32 32 14.327 32 32 32zM256 64c-58.255 0-109.232 31.137-137.213 77.672l41.164 24.698c19.587-32.574 55.271-54.37 96.049-54.37s76.462 21.796 96.049 54.37l41.164-24.698c-27.981-46.535-78.958-77.672-137.213-77.672z" />
<glyph unicode="&#xe685;" d="M256-32c141.385 0 256 114.615 256 256s-114.615 256-256 256-256-114.615-256-256 114.615-256 256-256zM256 432c114.875 0 208-93.125 208-208s-93.125-208-208-208-208 93.125-208 208 93.125 208 208 208zM128 320c0 17.673 14.327 32 32 32s32-14.327 32-32c0-17.673-14.327-32-32-32s-32 14.327-32 32zM320 320c0 17.673 14.327 32 32 32s32-14.327 32-32c0-17.673-14.327-32-32-32s-32 14.327-32 32zM384 192v-32h-32v-48c0-26.51-21.49-48-48-48s-48 21.49-48 48v48h-128v32h256z" />
<glyph unicode="&#xe686;" d="M256 480c-141.385 0-256-114.615-256-256s114.615-256 256-256 256 114.615 256 256-114.615 256-256 256zM160 352c17.673 0 32-14.327 32-32s-14.327-32-32-32-32 14.327-32 32 14.327 32 32 32zM384 160h-32v-48c0-26.51-21.49-48-48-48s-48 21.49-48 48v48h-128v32h256v-32zM352 288c-17.673 0-32 14.327-32 32s14.327 32 32 32 32-14.327 32-32-14.327-32-32-32z" />
<glyph unicode="&#xe687;" d="M256-32c141.385 0 256 114.615 256 256s-114.615 256-256 256-256-114.615-256-256 114.615-256 256-256zM256 432c114.875 0 208-93.125 208-208s-93.125-208-208-208-208 93.125-208 208 93.125 208 208 208zM128 320c0 17.673 14.327 32 32 32s32-14.327 32-32c0-17.673-14.327-32-32-32s-32 14.327-32 32zM320 320c0 17.673 14.327 32 32 32s32-14.327 32-32c0-17.673-14.327-32-32-32s-32 14.327-32 32zM159.951 89.63l-41.164 24.698c27.981 46.535 78.958 77.672 137.213 77.672s109.231-31.137 137.213-77.672l-41.164-24.698c-19.587 32.574-55.271 54.37-96.049 54.37-40.779 0-76.462-21.796-96.049-54.37z" />
<glyph unicode="&#xe688;" d="M256 480c-141.385 0-256-114.615-256-256s114.615-256 256-256 256 114.615 256 256-114.615 256-256 256zM352 352c17.673 0 32-14.327 32-32s-14.327-32-32-32-32 14.327-32 32 14.327 32 32 32zM160 352c17.673 0 32-14.327 32-32s-14.327-32-32-32-32 14.327-32 32 14.327 32 32 32zM352.049 89.63c-19.587 32.574-55.272 54.37-96.049 54.37s-76.462-21.796-96.049-54.37l-41.164 24.698c27.98 46.535 78.958 77.672 137.213 77.672s109.232-31.137 137.213-77.672l-41.164-24.698z" />
<glyph unicode="&#xe689;" d="M256-32c141.385 0 256 114.615 256 256s-114.615 256-256 256-256-114.615-256-256 114.615-256 256-256zM256 432c114.875 0 208-93.125 208-208s-93.125-208-208-208-208 93.125-208 208 93.125 208 208 208zM271.37 124.486c70.124 13.853 124.555 45.771 144.227 88.297-10.827-83.978-80.759-148.783-165.425-148.783-59.621 0-111.929 32.141-141.446 80.474 35.205-27.529 97.267-32.904 162.644-19.988zM320 304c0 26.51 14.327 48 32 48s32-21.49 32-48c0-26.51-14.327-48-32-48s-32 21.49-32 48zM176 294.25c-20.898 0-38.667-7.828-45.258-18.75-1.77 2.933-2.742 16.087-2.742 19.375 0 15.533 21.49 28.125 48 28.125s48-12.592 48-28.125c0-3.288-0.972-16.442-2.742-19.375-6.591 10.922-24.36 18.75-45.258 18.75z" />
<glyph unicode="&#xe690;" d="M256 480c-141.385 0-256-114.614-256-256s114.614-256 256-256c141.385 0 256 114.615 256 256s-114.615 256-256 256zM352 352c17.673 0 32-21.49 32-48s-14.327-48-32-48-32 21.49-32 48 14.327 48 32 48zM176 323.969c29.823 0 51-11.166 51-28.641 0-3.699 1.906-21.497-0.085-24.797-7.414 12.288-27.405 21.094-50.915 21.094s-43.501-8.806-50.915-21.094c-1.991 3.3-0.085 21.098-0.085 24.797 0 17.475 21.177 28.641 51 28.641zM250.172 64c-59.621 0-111.929 32.14-141.446 80.476 35.205-27.53 97.267-32.905 162.644-19.989 70.124 13.853 124.555 45.771 144.227 88.297-10.827-83.98-80.759-148.784-165.425-148.784z" />
<glyph unicode="&#xe691;" d="M256-32c141.385 0 256 114.615 256 256s-114.615 256-256 256-256-114.615-256-256 114.615-256 256-256zM256 432c114.875 0 208-93.125 208-208s-93.125-208-208-208-208 93.125-208 208 93.125 208 208 208zM96 224v-32c0-70.4 57.6-128 128-128h64c70.4 0 128 57.6 128 128v32h-320zM192 101.506c-13.269 4.729-25.462 12.411-35.772 22.723-18.203 18.201-28.228 42.27-28.228 67.771h64v-90.494zM288 96h-64v96h64v-96zM355.772 124.229c-10.312-10.312-22.505-17.994-35.772-22.723v90.494h64c0-25.501-10.024-49.57-28.228-67.771zM112.676 288c0.001 0 0 0 0 0 4.884 0 9.054 3.528 9.862 8.345 3.079 18.342 18.834 31.655 37.462 31.655s34.383-13.313 37.462-31.655c0.808-4.816 4.978-8.345 9.861-8.345 4.884 0 9.054 3.528 9.862 8.344 0.541 3.218 0.814 6.467 0.814 9.656 0 31.981-26.019 58-58 58s-58-26.019-58-58c0-3.189 0.274-6.438 0.814-9.656 0.81-4.816 4.98-8.344 9.863-8.344zM304.676 288c0.001 0 0 0 0 0 4.885 0 9.056 3.528 9.862 8.345 3.079 18.342 18.834 31.655 37.462 31.655s34.383-13.313 37.462-31.655c0.808-4.816 4.979-8.345 9.861-8.345s9.054 3.528 9.861 8.344c0.541 3.218 0.814 6.467 0.814 9.656 0 31.981-26.019 58-58 58s-58-26.019-58-58c0-3.189 0.272-6.438 0.813-9.656 0.812-4.816 4.982-8.344 9.865-8.344z" />
<glyph unicode="&#xe692;" d="M256 480c-141.385 0-256-114.615-256-256s114.613-256 256-256c141.385 0 256 114.615 256 256s-114.615 256-256 256zM352 362c31.981 0 58-26.019 58-58 0-3.189-0.273-6.438-0.814-9.656-0.809-4.816-4.979-8.344-9.862-8.344s-9.054 3.528-9.861 8.345c-3.080 18.342-18.835 26.655-37.463 26.655s-34.383-8.313-37.462-26.655c-0.808-4.816-4.978-8.345-9.861-8.345-0.001 0 0 0-0.001 0-4.883 0-9.053 3.528-9.861 8.344-0.542 3.218-0.815 6.467-0.815 9.656 0 31.981 26.019 58 58 58zM160 362c31.981 0 58-26.019 58-58 0-3.189-0.274-6.438-0.814-9.656-0.809-4.816-4.978-8.344-9.862-8.344s-9.053 3.528-9.861 8.345c-3.080 18.342-18.835 26.655-37.463 26.655s-34.383-8.313-37.462-26.655c-0.808-4.816-4.978-8.345-9.861-8.345 0 0 0 0 0 0-4.883 0-9.053 3.528-9.862 8.344-0.541 3.218-0.815 6.467-0.815 9.656 0 31.981 26.019 58 58 58zM96 192h96v-123.923c-55.047 14.303-96 64.562-96 123.923zM224 64v128h64v-128h-64zM320 68.077v123.923h96c0-59.361-40.952-109.62-96-123.923z" />
<glyph unicode="&#xe693;" d="M256-32c141.385 0 256 114.615 256 256s-114.615 256-256 256-256-114.615-256-256 114.615-256 256-256zM256 432c114.875 0 208-93.125 208-208s-93.125-208-208-208-208 93.125-208 208 93.125 208 208 208zM400 352c8.8 0 16-7.2 16-16v-48c0-17.6-14.4-32-32-32h-64c-17.6 0-32 14.4-32 32h-64c0-17.6-14.4-32-32-32h-64c-17.6 0-32 14.4-32 32v48c0 8.8 7.2 16 16 16h96c8.8 0 16-7.2 16-16v-16h64v16c0 8.8 7.2 16 16 16h96zM256 96c46.604 0 87.386 24.909 109.773 62.139l27.44-16.467c-27.983-46.535-78.958-77.672-137.213-77.672-24.229 0-47.192 5.398-67.77 15.041l16.581 27.639c15.677-6.857 32.982-10.68 51.189-10.68z" />
<glyph unicode="&#xe694;" d="M256 480c-141.385 0-256-114.615-256-256s114.613-256 256-256c141.385 0 256 114.615 256 256s-114.615 256-256 256zM256 64c-24.229 0-47.192 5.398-67.771 15.041l16.581 27.638c15.678-6.856 32.983-10.679 51.19-10.679 46.604 0 87.386 24.909 109.771 62.139l27.441-16.467c-27.982-46.535-78.957-77.672-137.212-77.672zM416 288c0-17.6-14.4-32-32-32h-64c-17.6 0-32 14.4-32 32h-64c0-17.6-14.4-32-32-32h-64c-17.6 0-32 14.4-32 32v48c0 8.8 7.2 16 16 16h96c8.8 0 16-7.2 16-16v-16h64v16c0 8.8 7.2 16 16 16h96c8.8 0 16-7.2 16-16v-48z" />
<glyph unicode="&#xe695;" d="M256-32c141.385 0 256 114.615 256 256s-114.615 256-256 256-256-114.615-256-256 114.615-256 256-256zM256 432c114.875 0 208-93.125 208-208s-93.125-208-208-208-208 93.125-208 208 93.125 208 208 208zM352.049 89.63c-19.587 32.574-55.272 54.37-96.049 54.37s-76.462-21.796-96.049-54.37l-41.164 24.698c27.98 46.535 78.958 77.672 137.213 77.672s109.232-31.137 137.213-77.672l-41.164-24.698zM383.521 339.88c2.142-8.572-3.070-17.259-11.641-19.402-8.813-2.225-19.261-6.060-28.468-10.675 5.324-5.715 8.587-13.376 8.587-21.803 0-17.673-14.327-32-32-32s-32 14.327-32 32c0 0.585 0.018 1.165 0.049 1.742 1.016 23.727 22.606 39.473 40.796 48.569 17.371 8.685 34.551 13.030 35.274 13.211 8.573 2.144 17.259-3.069 19.403-11.642zM128.479 339.88c2.144 8.573 10.83 13.786 19.403 11.642 0.723-0.181 17.903-4.526 35.274-13.211 18.19-9.096 39.78-24.842 40.796-48.569 0.031-0.577 0.049-1.157 0.049-1.742 0-17.673-14.327-32-32-32s-32 14.327-32 32c0 8.427 3.263 16.088 8.587 21.803-9.207 4.615-19.655 8.45-28.468 10.675-8.571 2.143-13.783 10.83-11.641 19.402z" />
<glyph unicode="&#xe696;" d="M256 480c-141.385 0-256-114.615-256-256s114.615-256 256-256 256 114.615 256 256-114.615 256-256 256zM288.047 289.742c1.016 23.727 22.605 39.474 40.796 48.569 17.371 8.686 34.552 13.030 35.274 13.211 8.573 2.144 17.26-3.069 19.403-11.642s-3.069-17.259-11.642-19.403c-8.812-2.225-19.261-6.060-28.468-10.675 5.324-5.715 8.587-13.376 8.587-21.803 0-17.673-14.327-32-32-32s-32 14.327-32 32c0.001 0.585 0.019 1.166 0.050 1.743zM128.479 339.88c2.144 8.573 10.83 13.786 19.403 11.642 0.723-0.181 17.903-4.526 35.274-13.211 18.19-9.096 39.78-24.842 40.796-48.569 0.031-0.577 0.049-1.157 0.049-1.742 0-17.673-14.327-32-32-32s-32 14.327-32 32c0 8.427 3.263 16.088 8.587 21.803-9.207 4.615-19.655 8.45-28.468 10.675-8.571 2.143-13.783 10.83-11.641 19.402zM352.049 89.63c-19.587 32.574-55.272 54.37-96.049 54.37s-76.462-21.796-96.049-54.37l-41.164 24.698c27.98 46.535 78.958 77.672 137.213 77.672s109.232-31.137 137.213-77.672l-41.164-24.698z" />
<glyph unicode="&#xe697;" d="M319.998 256c-17.673 0-32 14.327-31.999 32.001 0 0.585 0.018 1.165 0.049 1.742 1.016 23.727 22.606 39.473 40.796 48.569 17.371 8.685 34.551 13.030 35.274 13.211 8.573 2.144 17.259-3.069 19.403-11.642 2.142-8.573-3.070-17.259-11.642-19.403-8.813-2.225-19.261-6.060-28.468-10.675 5.324-5.715 8.587-13.376 8.587-21.803 0-17.673-14.327-32-32-32zM140.121 320.478c-8.572 2.143-13.784 10.83-11.641 19.402s10.83 13.786 19.403 11.642c0.722-0.181 17.903-4.525 35.274-13.211 18.191-9.095 39.78-24.842 40.796-48.569 0.031-0.577 0.049-1.158 0.049-1.742 0-17.673-14.327-32-32-32s-32 14.327-32 32c0 8.427 3.263 16.088 8.587 21.803-9.207 4.615-19.656 8.45-28.468 10.675zM256 112c40.777 0 76.462 21.796 96.049 54.37l41.164-24.698c-27.981-46.535-78.958-77.672-137.213-77.672s-109.232 31.137-137.213 77.672l41.164 24.698c19.587-32.574 55.271-54.37 96.049-54.37zM512 448c0 22.758-4.762 44.4-13.326 64-16.788-38.418-48.224-68.966-87.247-84.589-43.097 32.98-96.968 52.589-155.427 52.589s-112.33-19.609-155.427-52.589c-39.024 15.623-70.459 46.171-87.247 84.589-8.564-19.6-13.326-41.242-13.326-64 0-36.787 12.425-70.664 33.294-97.689-21.185-37.271-33.294-80.375-33.294-126.311 0-141.385 114.615-256 256-256s256 114.615 256 256c0 45.936-12.109 89.040-33.294 126.311 20.869 27.025 33.294 60.902 33.294 97.689zM256 16c-114.875 0-208 93.125-208 208s93.125 208 208 208 208-93.125 208-208-93.125-208-208-208z" />
<glyph unicode="&#xe698;" d="M512 448c0 22.758-4.762 44.4-13.326 64-16.788-38.418-48.224-68.966-87.247-84.589-43.097 32.98-96.968 52.589-155.427 52.589s-112.33-19.609-155.427-52.589c-39.024 15.623-70.459 46.171-87.247 84.589-8.564-19.6-13.326-41.242-13.326-64 0-36.787 12.425-70.664 33.294-97.689-21.185-37.271-33.294-80.375-33.294-126.311 0-141.385 114.615-256 256-256s256 114.615 256 256c0 45.936-12.109 89.040-33.294 126.311 20.869 27.025 33.294 60.902 33.294 97.689zM288.047 289.742c1.016 23.727 22.605 39.474 40.796 48.569 17.371 8.686 34.552 13.030 35.274 13.211 8.573 2.144 17.26-3.069 19.403-11.642s-3.069-17.259-11.642-19.403c-8.812-2.225-19.261-6.060-28.468-10.675 5.324-5.715 8.587-13.376 8.587-21.803 0-17.673-14.327-32-32-32s-32 14.327-32 32c0.001 0.585 0.019 1.166 0.050 1.743zM128.479 339.88c2.144 8.573 10.83 13.786 19.403 11.642 0.723-0.181 17.903-4.526 35.274-13.211 18.19-9.096 39.78-24.842 40.796-48.569 0.031-0.577 0.049-1.157 0.049-1.742 0-17.673-14.327-32-32-32s-32 14.327-32 32c0 8.427 3.263 16.088 8.587 21.803-9.207 4.615-19.655 8.45-28.468 10.675-8.571 2.143-13.783 10.83-11.641 19.402zM256 64c-58.255 0-109.232 31.137-137.213 77.672l41.164 24.698c19.587-32.574 55.271-54.37 96.049-54.37s76.462 21.796 96.049 54.37l41.164-24.698c-27.981-46.535-78.958-77.672-137.213-77.672z" />
<glyph unicode="&#xe699;" d="M256-32c141.385 0 256 114.615 256 256s-114.615 256-256 256-256-114.615-256-256 114.615-256 256-256zM256 432c114.875 0 208-93.125 208-208s-93.125-208-208-208-208 93.125-208 208 93.125 208 208 208zM192 128c0 35.346 28.654 64 64 64s64-28.654 64-64c0-35.346-28.654-64-64-64s-64 28.654-64 64zM320 304c0 26.51 14.327 48 32 48s32-21.49 32-48c0-26.51-14.327-48-32-48s-32 21.49-32 48zM128 304c0 26.51 14.327 48 32 48s32-21.49 32-48c0-26.51-14.327-48-32-48s-32 21.49-32 48z" />
<glyph unicode="&#xe700;" d="M256 480c-141.385 0-256-114.615-256-256s114.615-256 256-256 256 114.615 256 256-114.615 256-256 256zM160 256c-17.673 0-32 21.49-32 48s14.327 48 32 48 32-21.49 32-48-14.327-48-32-48zM256 64c-35.346 0-64 28.654-64 64s28.654 64 64 64c35.346 0 64-28.654 64-64s-28.654-64-64-64zM352 256c-17.673 0-32 21.49-32 48s14.327 48 32 48 32-21.49 32-48-14.327-48-32-48z" />
<glyph unicode="&#xe701;" d="M256-32c141.385 0 256 114.615 256 256s-114.615 256-256 256-256-114.615-256-256 114.615-256 256-256zM256 432c114.875 0 208-93.125 208-208s-93.125-208-208-208-208 93.125-208 208 93.125 208 208 208zM128 320c0 17.673 14.327 32 32 32s32-14.327 32-32c0-17.673-14.327-32-32-32s-32 14.327-32 32zM320 320c0 17.673 14.327 32 32 32s32-14.327 32-32c0-17.673-14.327-32-32-32s-32 14.327-32 32zM363.053 160h32.432c4.623-36.253-16.226-72.265-51.979-85.28-41.452-15.088-87.45 6.358-102.54 47.808-9.054 24.872-36.653 37.741-61.524 28.686-22.781-8.294-35.478-32.149-30.494-55.212h-32.43c-4.621 36.254 16.225 72.264 51.978 85.28 41.452 15.089 87.451-6.358 102.541-47.807 9.052-24.874 36.653-37.741 61.522-28.686 22.781 8.292 35.478 32.149 30.494 55.211z" />
<glyph unicode="&#xe702;" d="M256 480c-141.385 0-256-114.615-256-256s114.613-256 256-256c141.385 0 256 114.615 256 256s-114.615 256-256 256zM352 352c17.673 0 32-14.327 32-32s-14.327-32-32-32-32 14.327-32 32c0 17.673 14.327 32 32 32zM160 352c17.673 0 32-14.327 32-32s-14.327-32-32-32-32 14.327-32 32c0 17.673 14.327 32 32 32zM343.505 74.72c-41.451-15.090-87.45 6.356-102.54 47.807-9.054 24.871-36.653 37.739-61.524 28.686-22.781-8.294-35.479-32.148-30.494-55.212h-32.43c-4.622 36.254 16.225 72.266 51.978 85.28 41.452 15.090 87.451-6.356 102.541-47.807 9.054-24.871 36.653-37.738 61.523-28.685 22.781 8.292 35.479 32.147 30.494 55.211h32.432c4.62-36.253-16.227-72.266-51.98-85.28z" />
<glyph unicode="&#xe703;" d="M256-32c141.385 0 256 114.615 256 256s-114.615 256-256 256-256-114.615-256-256 114.615-256 256-256zM256 432c114.875 0 208-93.125 208-208s-93.125-208-208-208-208 93.125-208 208 93.125 208 208 208zM128 320c0-17.673 14.327-32 32-32s32 14.327 32 32-14.327 32-32 32-32-14.327-32-32zM320 320c0-17.673 14.327-32 32-32s32 14.327 32 32-14.327 32-32 32-32-14.327-32-32zM192 128h128v-32h-128v32z" />
<glyph unicode="&#xe704;" d="M256 480c-141.385 0-256-114.615-256-256s114.613-256 256-256c141.385 0 256 114.615 256 256s-114.615 256-256 256zM320 96h-128v32h128v-32zM352 352c17.673 0 32-14.327 32-32s-14.327-32-32-32-32 14.327-32 32c0 17.673 14.327 32 32 32zM160 352c17.673 0 32-14.327 32-32s-14.327-32-32-32-32 14.327-32 32c0 17.673 14.327 32 32 32z" />
<glyph unicode="&#xe705;" d="M256-32c141.385 0 256 114.615 256 256s-114.615 256-256 256-256-114.615-256-256 114.615-256 256-256zM256 432c114.875 0 208-93.125 208-208s-93.125-208-208-208-208 93.125-208 208 93.125 208 208 208zM372.87 179.19l11.244-38.388-218.504-64.001-11.244 38.388zM128 320c0 17.673 14.327 32 32 32s32-14.327 32-32c0-17.673-14.327-32-32-32s-32 14.327-32 32zM320 320c0 17.673 14.327 32 32 32s32-14.327 32-32c0-17.673-14.327-32-32-32s-32 14.327-32 32z" />
<glyph unicode="&#xe706;" d="M256 480c-141.385 0-256-114.615-256-256s114.615-256 256-256 256 114.615 256 256-114.615 256-256 256zM352 352c17.673 0 32-14.327 32-32s-14.327-32-32-32-32 14.327-32 32 14.327 32 32 32zM128 320c0 17.673 14.327 32 32 32s32-14.327 32-32-14.327-32-32-32-32 14.327-32 32zM165.622 76.807l-11.244 38.387 218.5 64 11.244-38.387-218.5-64z" />
<glyph unicode="&#xe711;" d="M362.070 335.979c-20.63 11.477-46.613 4.010-58.027-16.576l-79.211-142.55-45.333 45.334c-16.661 16.662-43.67 16.662-60.331 0s-16.662-43.67 0-60.33l85.333-85.334c8.064-8.086 18.944-12.522 30.166-12.522 1.963 0 3.946 0.128 5.91 0.426 13.248 1.856 24.874 9.813 31.381 21.526l106.666 192c11.456 20.608 4.032 46.57-16.555 58.026z" />
<glyph unicode="&#xe712;" d="M234.667 42.667c-17.088 0-33.173 6.656-45.248 18.752l-85.334 85.334c-12.096 12.075-18.752 28.16-18.752 45.248s6.656 33.174 18.752 45.27c24.17 24.17 66.325 24.17 90.496 0l25.344-25.344 65.472 117.824c11.221 20.309 32.704 32.938 55.979 32.938 10.816 0 21.589-2.794 31.062-8.064 14.933-8.32 25.728-21.931 30.442-38.358 4.714-16.448 2.709-33.728-5.611-48.683l-106.666-192c-9.685-17.45-27.286-29.526-47.061-32.298-2.965-0.406-5.91-0.618-8.875-0.618zM149.334 213.333c-5.718 0-11.051-2.219-15.083-6.25s-6.25-9.365-6.25-15.082 2.219-11.051 6.25-15.082l85.334-85.334c4.757-4.714 11.157-7.040 18.006-6.038 6.656 0.918 12.501 4.95 15.722 10.752l106.666 192c2.774 4.97 3.435 10.731 1.877 16.213s-5.184 10.027-10.197 12.8c-10.091 5.632-23.488 1.664-28.95-8.278l-92.95-167.275-65.322 65.322c-4.053 4.032-9.387 6.25-15.104 6.25z" />
<glyph unicode="&#xe713;" d="M371.499 328.832c-16.64 16.661-43.69 16.661-60.33 0l-55.168-55.168-55.168 55.168c-16.64 16.661-43.69 16.661-60.331 0-16.662-16.661-16.662-43.67 0-60.33l55.147-55.168-55.147-55.168c-16.662-16.661-16.662-43.669 0-60.331 8.32-8.341 19.243-12.502 30.166-12.502s21.845 4.16 30.166 12.502l55.168 55.168 55.168-55.168c8.32-8.341 19.243-12.502 30.166-12.502s21.846 4.16 30.166 12.502c16.661 16.661 16.661 43.669 0 60.331l-55.147 55.168 55.147 55.168c16.661 16.661 16.661 43.669 0 60.33z" />
<glyph unicode="&#xe714;" d="M341.334 64c-17.11 0-33.173 6.656-45.269 18.752l-40.064 40.086-40.085-40.086c-24.171-24.171-66.326-24.171-90.518 0-12.075 12.075-18.73 28.16-18.73 45.248s6.656 33.173 18.752 45.269l40.064 40.064-40.064 40.086c-12.096 12.075-18.752 28.16-18.752 45.248s6.656 33.173 18.752 45.269c24.171 24.149 66.326 24.171 90.518-0.022l40.064-40.085 40.086 40.085c24.171 24.171 66.325 24.171 90.517 0 12.075-12.075 18.731-28.16 18.731-45.248s-6.656-33.173-18.752-45.269l-40.064-40.064 40.064-40.086c12.096-12.075 18.752-28.16 18.752-45.248s-6.656-33.173-18.752-45.269c-12.075-12.075-28.139-18.731-45.248-18.731zM256 183.168l70.25-70.25c8.064-8.064 22.123-8.043 30.166 0 4.032 4.032 6.25 9.365 6.25 15.082s-2.219 11.051-6.25 15.082l-70.229 70.25 70.23 70.25c4.032 4.032 6.25 9.387 6.25 15.083s-2.219 11.051-6.25 15.083c-8.064 8.085-22.123 8.064-30.166 0.021l-70.25-70.272-70.25 70.251c-8.064 8.064-22.123 8.042-30.166 0-4.032-4.032-6.25-9.387-6.25-15.083s2.219-11.051 6.25-15.083l70.23-70.25-70.23-70.25c-4.032-4.032-6.25-9.365-6.25-15.082s2.219-11.051 6.25-15.082c8.064-8.086 22.123-8.064 30.166-0.022l70.25 70.272z" />
<glyph unicode="&#xe715;" d="M384 256h-85.334v85.334c0 23.552-19.115 42.666-42.666 42.666s-42.666-19.114-42.666-42.666l1.514-85.334h-86.848c-23.552 0-42.667-19.114-42.667-42.667s19.115-42.666 42.667-42.666l86.848 1.514-1.514-86.848c0-23.552 19.114-42.666 42.666-42.666s42.666 19.115 42.666 42.666v86.848l85.334-1.514c23.552 0 42.666 19.115 42.666 42.666s-19.115 42.667-42.666 42.667z" />
<glyph unicode="&#xe716;" d="M256 21.333c-35.286 0-64 28.714-64 64l1.131 65.13-64.747-1.13c-35.67 0-64.384 28.714-64.384 64s28.715 64 64 64l65.13 1.152-1.131 62.464c0 35.669 28.715 64.384 64 64.384s64-28.714 64-64l1.173-62.848 63.211-1.152c34.902 0 63.616-28.715 63.616-64s-28.714-64-64-64l-62.827 1.13-1.173-65.515c0-34.902-28.714-63.616-64-63.616zM234.667 192v-107.051c0-11.37 9.578-20.95 21.333-20.95s21.334 9.579 21.334 21.334v106.666h107.051c11.37 0 20.95 9.579 20.95 21.334s-9.579 21.334-21.334 21.334h-106.666v106.667c0 12.139-9.579 21.333-21.334 21.333s-21.334-9.578-21.334-21.333v-106.667h-106.667c-12.139 0-21.334-9.578-21.334-21.334s9.579-21.334 21.334-21.334h106.667z" />
<glyph unicode="&#xe717;" d="M384 234.667h-256c-23.552 0-42.667-19.115-42.667-42.667s19.115-42.666 42.667-42.666h256c23.552 0 42.666 19.115 42.666 42.666s-19.115 42.667-42.666 42.667z" />
<glyph unicode="&#xe718;" d="M384 128h-256c-35.286 0-64 28.714-64 64s28.715 64 64 64h256c35.286 0 64-28.714 64-64s-28.714-64-64-64zM128 213.333c-11.755 0-21.334-9.579-21.334-21.334s9.579-21.334 21.334-21.334h256c11.755 0 21.334 9.579 21.334 21.334s-9.579 21.334-21.334 21.334h-256z" />
<glyph unicode="&#xe719;" d="M256 432c-114.88 0-208-93.12-208-208s93.12-208 208-208 208 93.12 208 208-93.12 208-208 208zM372.128 283.088l-151.776-151.76c-3.808-3.792-9.968-3.792-13.776 0l-3.056 3.056-0.016-0.016-83.504 84.096c-3.808 3.808-3.808 9.984 0 13.792l20.704 20.688c3.808 3.808 9.984 3.808 13.792 0l59.024-59.456 124.096 124.096c3.808 3.808 9.984 3.808 13.792 0l20.704-20.704c3.824-3.792 3.824-9.968 0.016-13.792z" />
<glyph unicode="&#xe720;" d="M349.12 271.52l-16.032 16.032c-2.96 2.96-7.744 2.96-10.688 0l-96.224-96.208-45.744 46.112c-2.976 2.96-7.744 2.96-10.72 0l-16.032-16.048c-2.96-2.96-2.96-7.744 0-10.688l67.088-67.568c2.96-2.944 7.744-2.944 10.688 0l117.664 117.664c2.976 2.96 2.976 7.744 0 10.704zM256 432c-114.88 0-208-93.12-208-208s93.12-208 208-208 208 93.12 208 208-93.12 208-208 208zM256 64c-88.352 0-160 71.648-160 160 0 88.368 71.648 160 160 160 88.368 0 160-71.632 160-160 0-88.352-71.632-160-160-160z" />
<glyph unicode="&#xe721;" d="M256 16c-114.88 0-208 93.12-208 208s93.12 208 208 208 208-93.12 208-208-93.12-208-208-208zM351.376 284.656c3.904 3.904 3.904 10.256 0 14.16l-21.248 21.232c-3.904 3.904-10.256 3.904-14.16 0l-60.176-60.176-60.176 60.176c-3.904 3.904-10.256 3.904-14.16 0l-21.248-21.232c-3.904-3.904-3.904-10.256 0-14.16l60.192-60.192-60.192-60.16c-3.904-3.904-3.904-10.256 0-14.16l21.248-21.248c3.904-3.904 10.256-3.904 14.16 0l60.176 60.192 60.176-60.192c3.904-3.904 10.256-3.904 14.16 0l21.248 21.248c3.904 3.904 3.904 10.256 0 14.16l-60.192 60.16 60.192 60.192z" />
<glyph unicode="&#xe722;" d="M256 16c-114.88 0-208 93.12-208 208s93.12 208 208 208 208-93.12 208-208-93.12-208-208-208zM256 384c-88.352 0-160-71.648-160-160s71.648-160 160-160c88.368 0 160 71.648 160 160s-71.632 160-160 160zM328.592 167.44l-16.224-16.224c-2.976-2.976-7.808-2.976-10.8 0l-45.92 45.92-45.92-45.92c-2.992-2.976-7.808-2.976-10.8 0l-16.224 16.224c-2.976 2.976-2.976 7.808 0 10.8l45.936 45.904-45.936 45.92c-2.976 2.992-2.976 7.824 0 10.816l16.224 16.208c2.992 2.992 7.808 2.992 10.8 0l45.92-45.92 45.92 45.92c2.992 2.992 7.824 2.992 10.8 0l16.224-16.208c2.976-2.992 2.976-7.824 0-10.816l-45.936-45.92 45.936-45.904c2.976-2.992 2.976-7.84 0-10.8z" />
<glyph unicode="&#xe723;" d="M248 8c-114.88 0-208 93.12-208 208s93.12 208 208 208 208-93.12 208-208-93.12-208-208-208zM351.008 224.992c0 8.832-7.168 16-16 16h-64v64c0 8.832-7.152 16-16 16h-16c-8.848 0-16-7.168-16-16v-64h-64c-8.848 0-16-7.168-16-16v-16c0-8.848 7.152-16 16-16h64v-64c0-8.848 7.152-16 16-16h16c8.848 0 16 7.152 16 16v64h64c8.832 0 16 7.152 16 16v16z" />
<glyph unicode="&#xe724;" d="M256 16c-114.88 0-208 93.12-208 208s93.12 208 208 208 208-93.12 208-208-93.12-208-208-208zM256 384c-88.352 0-160-71.632-160-160 0-88.352 71.648-160 160-160 88.368 0 160 71.648 160 160 0 88.368-71.632 160-160 160zM319.808 208h-48v-48c0-8.848-7.168-16-16-16-8.848 0-16 7.152-16 16v48h-48c-8.848 0-16 7.168-16 16s7.152 16 16 16h48v48c0 8.848 7.152 16 16 16 8.832 0 16-7.152 16-16v-48h48c8.832 0 16-7.168 16-16s-7.168-16-16-16z" />
<glyph unicode="&#xe725;" d="M248 424c-114.88 0-208-93.12-208-208s93.12-208 208-208c114.88 0 208 93.12 208 208s-93.12 208-208 208zM352 210c0-8.848-7.168-16-16-16h-176c-8.848 0-16 7.152-16 16v16c0 8.832 7.152 16 16 16h176c8.832 0 16-7.168 16-16v-16z" />
<glyph unicode="&#xe726;" d="M256 432c-114.88 0-208-93.12-208-208s93.12-208 208-208 208 93.12 208 208-93.12 208-208 208zM256 64c-88.352 0-160 71.648-160 160 0 88.368 71.648 160 160 160 88.368 0 160-71.632 160-160 0-88.352-71.632-160-160-160zM315.808 240h-128c-8.848 0-16-7.168-16-16 0-8.848 7.152-16 16-16h128c8.848 0 16 7.152 16 16 0 8.832-7.152 16-16 16z" />
<glyph unicode="&#xe727;" d="M405.334 106.667h-298.667c-23.531 0-42.667-19.136-42.667-42.666s19.136-42.666 42.667-42.666h298.667c23.531 0 42.666 19.136 42.666 42.666s-19.136 42.666-42.666 42.666zM405.334 256h-298.667c-23.531 0-42.667-19.136-42.667-42.667s19.136-42.666 42.667-42.666h298.667c23.531 0 42.666 19.136 42.666 42.666s-19.136 42.667-42.666 42.667zM405.334 405.333h-298.667c-23.531 0-42.667-19.136-42.667-42.667s19.136-42.666 42.667-42.666h298.667c23.531 0 42.666 19.136 42.666 42.666s-19.136 42.667-42.666 42.667z" />
<glyph unicode="&#xe728;" d="M405.334 85.333c11.733 0 21.334-9.6 21.334-21.334s-9.6-21.334-21.334-21.334h-298.667c-11.733 0-21.334 9.6-21.334 21.334s9.6 21.334 21.334 21.334h298.667zM405.334 128h-298.667c-35.286 0-64-28.714-64-64s28.715-64 64-64h298.667c35.286 0 64 28.714 64 64s-28.714 64-64 64zM405.334 234.667c11.733 0 21.334-9.6 21.334-21.334s-9.6-21.334-21.334-21.334h-298.667c-11.733 0-21.334 9.6-21.334 21.334s9.6 21.334 21.334 21.334h298.667zM405.334 277.333h-298.667c-35.286 0-64-28.715-64-64s28.715-64 64-64h298.667c35.286 0 64 28.714 64 64s-28.714 64-64 64zM405.334 384c11.733 0 21.334-9.6 21.334-21.333s-9.6-21.333-21.334-21.333h-298.667c-11.733 0-21.334 9.6-21.334 21.333s9.6 21.334 21.334 21.334h298.667zM405.334 426.667h-298.667c-35.286 0-64-28.714-64-64s28.715-64 64-64h298.667c35.286 0 64 28.715 64 64s-28.714 64-64 64z" />
<glyph unicode="&#xe729;" d="M405.334 106.667h-149.334c-23.53 0-42.666-19.136-42.666-42.666s19.136-42.666 42.666-42.666h149.333c23.531 0 42.666 19.136 42.666 42.666s-19.136 42.666-42.666 42.666zM405.334 256h-149.334c-23.53 0-42.666-19.136-42.666-42.667s19.136-42.666 42.666-42.666h149.333c23.531 0 42.666 19.136 42.666 42.666s-19.136 42.667-42.666 42.667zM405.334 405.333h-149.334c-23.53 0-42.666-19.136-42.666-42.667s19.136-42.666 42.666-42.666h149.333c23.531 0 42.666 19.136 42.666 42.666s-19.136 42.667-42.666 42.667zM160 64c0-29.455-23.878-53.334-53.334-53.334s-53.334 23.878-53.334 53.334c0 29.455 23.878 53.334 53.334 53.334s53.334-23.878 53.334-53.334zM160 213.333c0-29.455-23.878-53.334-53.334-53.334s-53.334 23.878-53.334 53.334c0 29.455 23.878 53.334 53.334 53.334s53.334-23.878 53.334-53.334zM160 362.667c0-29.455-23.878-53.333-53.334-53.333s-53.334 23.878-53.334 53.333c0 29.455 23.878 53.334 53.334 53.334s53.334-23.878 53.334-53.334z" />
<glyph unicode="&#xe730;" d="M405.334 85.333c11.733 0 21.334-9.6 21.334-21.334s-9.6-21.334-21.334-21.334h-149.334c-11.733 0-21.334 9.6-21.334 21.334s9.6 21.334 21.334 21.334h149.333zM405.334 128h-149.334c-35.286 0-64-28.714-64-64s28.714-64 64-64h149.333c35.286 0 64 28.714 64 64s-28.714 64-64 64zM405.334 234.667c11.733 0 21.334-9.6 21.334-21.334s-9.6-21.334-21.334-21.334h-149.334c-11.733 0-21.334 9.6-21.334 21.334s9.6 21.334 21.334 21.334h149.333zM405.334 277.333h-149.334c-35.286 0-64-28.715-64-64s28.714-64 64-64h149.333c35.286 0 64 28.714 64 64s-28.714 64-64 64zM405.334 384c11.733 0 21.334-9.6 21.334-21.333s-9.6-21.333-21.334-21.333h-149.334c-11.733 0-21.334 9.6-21.334 21.333s9.6 21.334 21.334 21.334h149.333zM405.334 426.667h-149.334c-35.286 0-64-28.714-64-64s28.714-64 64-64h149.333c35.286 0 64 28.715 64 64s-28.714 64-64 64zM128 128h-42.667c-23.552 0-42.667-19.115-42.667-42.666v-42.666c0-23.552 19.115-42.666 42.667-42.666h42.667c23.552 0 42.666 19.115 42.666 42.666v42.666c0 23.552-19.114 42.666-42.667 42.666zM128 42.667h-42.667v42.666h42.667v-42.666zM128 277.333h-42.667c-23.552 0-42.667-19.115-42.667-42.667v-42.667c0-23.552 19.115-42.666 42.667-42.666h42.667c23.552 0 42.666 19.115 42.666 42.666v42.667c0 23.552-19.114 42.667-42.667 42.667zM128 192h-42.667v42.667h42.667v-42.667zM128 426.667h-42.667c-23.552 0-42.667-19.115-42.667-42.666v-42.666c0-23.552 19.115-42.667 42.667-42.667h42.667c23.552 0 42.666 19.115 42.666 42.667v42.666c0 23.552-19.114 42.666-42.667 42.666zM128 341.333h-42.667v42.666h42.667v-42.666z" />
<glyph unicode="&#xe731;" d="M400 272c-35.29 0-64-28.71-64-64s28.71-64 64-64c35.29 0 64 28.71 64 64s-28.71 64-64 64zM400 320v0c61.855 0 112-50.144 112-112s-50.145-112-112-112c-61.855 0-112 50.145-112 112s50.145 112 112 112zM0 208c0 61.856 50.144 112 112 112s112-50.144 112-112c0-61.856-50.144-112-112-112s-112 50.144-112 112z" />
<glyph unicode="&#xe732;" d="M0 208c0 61.856 50.144 112 112 112s112-50.144 112-112c0-61.856-50.144-112-112-112s-112 50.144-112 112zM288 208c0 61.856 50.144 112 112 112s112-50.144 112-112c0-61.856-50.144-112-112-112s-112 50.144-112 112z" />
<glyph unicode="&#xe733;" d="M256 476.16c-135.731 0-245.76-110.029-245.76-245.76s110.029-245.76 245.76-245.76 245.76 110.029 245.76 245.76-110.003 245.76-245.76 245.76zM190.336 178.662c-28.032 0-50.739 23.142-50.739 51.738s22.707 51.738 50.739 51.738c28.032 0 50.765-23.143 50.765-51.738-0.025-28.595-22.733-51.738-50.765-51.738zM321.639 178.662c-28.058 0-50.765 23.142-50.765 51.738s22.707 51.738 50.765 51.738c28.007 0 50.739-23.143 50.739-51.738 0.026-28.595-22.733-51.738-50.739-51.738z" />
<glyph unicode="&#xe734;" d="M426.688 480h-341.344c-46.938 0-85.344-38.406-85.344-85.341v-341.313c0-46.971 38.406-85.346 85.344-85.346h341.341c46.937 0 85.315 38.377 85.315 85.348v341.311c0 46.935-38.378 85.341-85.312 85.341zM144 144c-44.183 0-80 35.817-80 80s35.817 80 80 80 80-35.817 80-80c0-44.183-35.817-80-80-80zM368 144c-44.184 0-80 35.817-80 80s35.816 80 80 80 80-35.817 80-80c0-44.183-35.816-80-80-80z" />
<glyph unicode="&#xe741;" d="M256 480c-106.031 0-192-85.969-192-192s192-320 192-320 192 213.969 192 320-85.969 192-192 192zM256 160c-70.688 0-128 57.312-128 128s57.312 128 128 128 128-57.312 128-128-57.312-128-128-128z" />
<glyph unicode="&#xe742;" d="M256 480c-106.031 0-192-85.969-192-192s192-320 192-320 192 213.969 192 320-85.969 192-192 192zM256 160c-70.688 0-128 57.312-128 128s57.312 128 128 128 128-57.312 128-128-57.312-128-128-128zM256 352c-35.344 0-64-28.656-64-64s28.656-64 64-64 64 28.656 64 64-28.656 64-64 64z" />
<glyph unicode="&#xe743;" d="M465.455 46.545h-418.909c-25.693 0-46.546 20.853-46.546 46.546v279.273c0 25.693 20.853 46.546 46.546 46.546h418.909c25.693 0 46.546-20.853 46.546-46.546v-279.273c0-25.693-20.853-46.546-46.546-46.546zM442.182 93.091l-133.4 116.736-52.783-46.918-52.783 46.918-133.4-116.736h372.364zM46.546 116.364l130.909 116.363-130.909 116.363v-232.727zM69.818 372.364l186.182-162.909 186.182 162.909h-372.364zM465.455 349.091l-130.909-116.363 130.909-116.363v232.727z" />
<glyph unicode="&#xe744;" d="M0 74.667c0-23.573 19.093-42.667 42.667-42.667h426.667c23.573 0 42.667 19.093 42.667 42.667l-0.001 288c0 23.573-19.093 42.667-42.667 42.667l-426.666-0.001c-23.573 0-42.667-19.093-42.667-42.667v-287.999zM157.013 218.347l-97.6 98.24c-8.096 8.107-8.096 21.227 0 29.333 8.117 8.107 21.237 8.107 29.333 0l155.734-155.936c6.293-6.187 16.651-6.187 22.837 0l155.936 155.936c8.107 8.107 21.227 8.107 29.333 0s8.107-21.227 0-29.333l-97.707-98.24 97.707-97.589c8.107-8.107 8.107-21.227 0-29.333s-21.227-8.107-29.333 0l-97.6 97.493c0 0-30.496-31.040-36.043-36.587-8.65-8.438-20.597-13.664-33.61-13.664-13.227 0-25.173 5.333-33.813 13.984-5.653 5.547-35.947 36.256-35.947 36.256l-97.504-97.493c-8.096-8.107-21.216-8.107-29.333 0-8.096 8.107-8.096 21.227 0 29.333l97.61 97.6z" />
<glyph unicode="&#xe745;" d="M469.334 277.333h-42.666v170.666h-341.334v-170.666h-42.667c-23.467 0-42.667-19.2-42.667-42.667v-213.334c0-23.466 14.4-42.666 32-42.666h53.334v-21.333h341.334v21.333h53.334c17.6 0 32 19.2 32 42.666v213.334c0 23.466-19.2 42.667-42.666 42.667zM85.334-0h-21.334v106.666h21.334v-106.666zM384-0h-256v106.666h42.666v-21.334h170.666v21.334h42.666v-106.666zM384 277.333h-256v128h256v-128zM448-0h-21.334v106.666h21.334v-106.666zM469.334 213.333h-42.666v21.334h42.666v-21.334zM170.667 42.667h170.667v21.334h-170.667v-21.334z" />
<glyph unicode="&#xe751;" d="M0 342q0 26.286 14.572 53.143 16 28.857 30.286 34.857 7.143 3.143 19.572 6t20.143 2.857q4 0 6-0.857 5.143-1.714 15.143-21.714 3.143-5.428 8.572-15.428t10-18.143 8.857-15.285q0.857-1.143 5-7.143t6.143-10.143 2-8.143q0-5.714-8.143-14.286t-17.715-15.714-17.715-15.143-8.143-13.143q0-2.572 1.428-6.428t2.428-5.857 4-6.857 3.285-5.428q21.715-39.143 49.715-67.143t67.143-49.714q0.571-0.286 5.429-3.286t6.857-4 5.857-2.428 6.428-1.428q5.143 0 13.143 8.143t15.143 17.714 15.714 17.714 14.286 8.143q4 0 8.143-2t10.143-6.143 7.143-5q7.143-4.286 15.286-8.857t18.143-10 15.428-8.572q20-10 21.714-15.143 0.857-2 0.857-6 0-7.714-2.857-20.143t-6-19.572q-6-14.286-34.857-30.286-26.857-14.572-53.143-14.572-7.714 0-15 1t-16.428 3.572-13.572 4.143-15.857 5.857-14 5.143q-28 10-50 23.714-36.571 22.572-75.572 61.572t-61.572 75.572q-13.715 22-23.715 50-0.857 2.571-5.143 14t-5.857 15.857-4.143 13.572-3.572 16.428-1 15z" horiz-adv-x="403" />
</font>
</defs>
</svg>
